<svg xmlns="http://www.w3.org/2000/svg" viewBox="0 0 6.827 6.827"><path fill="#99BF7E" d="M3.413 0a3.413 3.413 0 1 1 0 6.826 3.413 3.413 0 0 1 0-6.826"/><path fill="#fff" d="M2.25 2.091v-.01a.236.236 0 0 1 .234-.234h1.86a.236.236 0 0 1 .234.234v2.664a.236.236 0 0 1-.234.234h-.01V2.383a.29.29 0 0 0-.292-.292z"/><path fill="#fff" d="M2.551 1.79v-.01a.236.236 0 0 1 .234-.234h1.86a.236.236 0 0 1 .234.234v2.664a.236.236 0 0 1-.234.234h-.01V2.082a.29.29 0 0 0-.292-.292z"/><path fill="#fff" d="M3.878 2.587H2.346v-.058h1.532zm.164-.438h-1.86a.236.236 0 0 0-.234.234v2.664a.236.236 0 0 0 .234.234h1.86a.236.236 0 0 0 .234-.234V2.383a.236.236 0 0 0-.234-.234m-1.696.765h1.532v.058H2.346zm0 .386h1.532v.058H2.346zm0 .386h.766v.058h-.766zm0 .386h1.532v.058H2.346zm0 .386h1.532v.058H2.346zm0 .386h1.108v.058H2.346z"/></svg>