<svg xmlns="http://www.w3.org/2000/svg" fill-rule="evenodd" image-rendering="optimizeQuality" shape-rendering="geometricPrecision" viewBox="0 0 6.827 6.827"><circle fill="#F96C2A" cx="3.413" cy="3.413" r="3.413"/><path d="m2.096 1.547.242.157.154-.149.154.149.154-.149.154.149.154-.149.154.149.154-.149.154.149.154-.149.154.149.154-.149.154.149.154-.149.154.149.242-.157V5.28l-.242-.157-.154.149-.154-.149-.154.149-.154-.149-.154.149-.154-.149-.154.149-.154-.149-.154.149-.154-.149-.154.149-.154-.149-.154.149-.154-.149-.242.157V1.547zm1.318.645a.62.62 0 1 1 0 1.244.62.62 0 1 1 0-1.244zm-.028.832V2.85c-.054-.015-.093-.039-.119-.07s-.038-.069-.038-.114.014-.083.043-.114.066-.048.114-.053v-.041h.06V2.5c.044.005.078.02.104.045s.042.058.049.099l-.104.014a.085.085 0 0 0-.05-.066v.161c.066.018.111.041.135.069s.036.065.036.109c0 .05-.015.092-.045.126s-.072.055-.126.063v.077h-.06v-.075c-.048-.006-.086-.023-.116-.053s-.049-.071-.057-.126l.108-.012a.134.134 0 0 0 .065.092zm0-.433c-.016.005-.029.015-.039.028s-.014.028-.014.044.004.028.013.041.022.023.04.03V2.59zm.06.438c.021-.004.037-.013.05-.029s.019-.033.019-.054-.005-.034-.016-.048-.029-.024-.053-.031v.161zm-.965.751h1.867v.078H2.48V3.78zm0 .389h1.867v.078H2.48v-.078zm0 .389h1.867v.078H2.48v-.078z" fill="#fffffe"/></svg>
