<svg xmlns="http://www.w3.org/2000/svg" fill-rule="evenodd" image-rendering="optimizeQuality" shape-rendering="geometricPrecision" viewBox="0 0 6.827 6.827"><circle cx="3.413" cy="3.413" r="3.413" fill="#F96C2A"/><path fill="#fffffe" d="m2.096 1.547.242.157.154-.149.154.149.154-.149.154.149.154-.149.154.149.154-.149.154.149.154-.149.154.149.154-.149.154.149.154-.149.154.149.242-.157V5.28l-.242-.157-.154.149-.154-.149-.154.149-.154-.149-.154.149-.154-.149-.154.149-.154-.149-.154.149-.154-.149-.154.149-.154-.149-.154.149-.154-.149-.242.157zm1.318.645a.62.62 0 1 1 0 1.244.62.62 0 1 1 0-1.244m-.028.832V2.85q-.08-.023-.119-.07c-.039-.047-.038-.069-.038-.114s.014-.083.043-.114.066-.048.114-.053v-.041h.06V2.5q.066.008.104.045c.038.037.042.058.049.099l-.104.014a.09.09 0 0 0-.05-.066v.161q.099.027.135.069c.036.042.036.065.036.109q0 .075-.045.126c-.045.051-.072.055-.126.063v.077h-.06v-.075q-.071-.008-.116-.053c-.045-.045-.049-.071-.057-.126l.108-.012a.13.13 0 0 0 .065.092zm0-.433q-.024.008-.039.028c-.015.02-.014.028-.014.044s.004.028.013.041.022.023.04.03V2.59zm.06.438q.031-.005.05-.029c.019-.024.019-.033.019-.054s-.005-.034-.016-.048-.029-.024-.053-.031zm-.965.751h1.867v.078H2.48zm0 .389h1.867v.078H2.48zm0 .389h1.867v.078H2.48z"/></svg>