<svg xmlns="http://www.w3.org/2000/svg" fill-rule="evenodd" image-rendering="optimizeQuality" shape-rendering="geometricPrecision" viewBox="0 0 6.827 6.827"><circle fill="#40AFBE" cx="3.413" cy="3.413" r="3.413"/><g fill="#fffffe"><path d="M3.982 1.908h.47v-.13c0-.064-.025-.122-.065-.164s-.095-.068-.156-.068h-.045c-.069.002-.114.025-.147.059s-.057.087-.057.143v.159z"/><path d="M1.979 1.778v2.254H3.09v-.485h-.8V3.47h.8v-.067l-.032-.461v-.03H2.29v-.078h.79a.253.253 0 0 1 .043-.06.23.23 0 0 1 .144-.065l.656-.001v-.959c0-.068.027-.131.07-.176.009-.01.019-.018.029-.026H2.2c-.061 0-.116.026-.156.068s-.065.1-.065.164zm.311.42h1.323v.078H2.29v-.078zm-.743 1.893v.132c0 .064.025.122.065.164s.095.068.156.068H3.09v-.363H1.548z"/><path d="M3.421 3.66h.363v.259h-.363V3.66zm.596.518h.363v.259h-.363v-.259zm.596.518h.363v.259h-.363v-.259zm-.596 0h.363v.259h-.363v-.259zm-.596-.518h.363v.259h-.363v-.259zm0 .518h.363v.259h-.363v-.259zm.596-.778V3.66h.363v.259h-.363zm.596.26h.363v.259h-.363v-.259zm0-.518h.363v.259h-.363V3.66zm.509-.325H3.275l-.028-.406c0-.009.003-.015.008-.02s.015-.01.025-.011h1.833c.012.001.021.005.027.011s.009.012.009.018l-.028.408zm.126 1.784V3.404l.032-.467v-.01c0-.044-.018-.083-.048-.111s-.066-.046-.108-.048H3.283c-.053.003-.091.021-.119.049s-.048.068-.048.111l.033.474V5.12c0 .044.018.085.047.114s.07.047.114.047h1.776c.044 0 .085-.018.114-.047s.047-.07.047-.114z"/></g></svg>
