<svg xmlns="http://www.w3.org/2000/svg" xml:space="preserve" fill-rule="evenodd" clip-rule="evenodd" image-rendering="optimizeQuality" shape-rendering="geometricPrecision" text-rendering="geometricPrecision" viewBox="0 0 6.827 6.827"><path fill="#8bc34a" d="M3.413 0a3.413 3.413 0 1 1 0 6.827 3.413 3.413 0 0 1 0-6.827"/><path fill="#fff" fill-rule="nonzero" d="m4.217 4.211-.398.263-.097.064.007-.116.029-.476.008-.025.924-1.6.029-.051.05.029.369.213.051.029-.029.051-.924 1.6z"/><path fill="#fff" fill-rule="nonzero" d="m5.104 2.217-.061-.036a.12.12 0 0 0-.091-.012.12.12 0 0 0-.073.056l-.06.103.269.155.06-.103a.12.12 0 0 0 .011-.09.12.12 0 0 0-.055-.073M5.1 2.08l.06.036h.001a.235.235 0 0 1 .086.322l-.088.154-.03.05-.05-.029L4.71 2.4l-.05-.03.029-.05.088-.153A.235.235 0 0 1 5.1 2.08"/><path fill="#fff" d="M1.884 3.657h1.453v.058H1.884zm.9.384c.005-.028.014-.056.043-.065h.002a.03.03 0 0 1 .03.012l.062.082a.4.4 0 0 0 .113.117l.03.02.101.07c.007.006.02.016.025.022a.03.03 0 0 1-.01.04.03.03 0 0 1-.04-.01c-.005-.01-.022-.019-.031-.025l-.047-.028-.03-.02-.036-.024a.5.5 0 0 1-.115-.117l-.038-.054-.01.043-.004.022-.009.042-.01.052-.006.042a.03.03 0 0 1-.057.008l-.01-.031-.03.012a.2.2 0 0 1-.054.015c-.017.003-.026 0-.038-.011l-.02-.018-.019.017a.05.05 0 0 1-.037.014 1 1 0 0 1-.153-.03l-.034-.01-.004.04c-.004.044-.019.09-.059.114a.1.1 0 0 1-.032.013c-.066.016-.115-.013-.153-.065a.4.4 0 0 1-.072-.167l-.005-.1v-.077c.001-.01.002-.028.004-.037a.03.03 0 0 1 .056.017c-.003.009-.002.025-.002.034v.111c.001.012.001.028.004.039a.4.4 0 0 0 .061.146c.022.03.055.052.093.043l.004-.001.012-.005c.023-.014.03-.046.032-.071v-.04l-.001-.018-.016-.007-.044-.023a.14.14 0 0 1-.044-.039c-.016-.025-.015-.043.008-.062.018-.015.06-.02.084-.022a.03.03 0 0 1 .027.01l.002.003a.3.3 0 0 1 .032.084l.003.015.015.005a1 1 0 0 0 .168.04l.014.002.01-.01c.014-.014.025-.026.046-.026s.03.008.044.022l.012.013.017-.005.018-.006q.016-.007.027-.017a.03.03 0 0 1 .022-.008l.024.001.006-.024.01-.051zm2.175.679V3.056l-.676 1.17-.028.03-.598.395.043-.715.012-.039.611-1.059H1.547v1.94h3.412z"/></svg>