<svg xmlns="http://www.w3.org/2000/svg" xml:space="preserve" fill-rule="evenodd" clip-rule="evenodd" image-rendering="optimizeQuality" shape-rendering="geometricPrecision" text-rendering="geometricPrecision" viewBox="0 0 6.827 6.827"><circle cx="3.413" cy="3.413" r="3.413" fill="#8C6AE2"/><g fill="#fffffe"><path d="M4.342 3.452a.914.914 0 1 1 0 1.828.914.914 0 0 1 0-1.828m-.027 1.41v-.1a.4.4 0 0 1-.12-.032.2.2 0 0 1-.08-.077.3.3 0 0 1-.038-.13l.098-.018a.25.25 0 0 0 .04.116.15.15 0 0 0 .1.059v-.313a.4.4 0 0 1-.124-.047.2.2 0 0 1-.072-.073.2.2 0 0 1-.025-.105q0-.105.074-.17a.26.26 0 0 1 .147-.054v-.047h.058v.047a.24.24 0 0 1 .136.05.22.22 0 0 1 .078.147l-.102.016a.17.17 0 0 0-.036-.09.13.13 0 0 0-.076-.04v.284a1 1 0 0 1 .099.029q.045.02.074.049.03.03.045.069a.2.2 0 0 1 .016.086.24.24 0 0 1-.234.244v.1zm0-.862a.14.14 0 0 0-.09.046.13.13 0 0 0-.033.088q0 .05.028.084t.095.054zm.058.68a.15.15 0 0 0 .095-.05.15.15 0 0 0 .038-.106.13.13 0 0 0-.027-.085.23.23 0 0 0-.106-.059zm-.031-1.06a.744.744 0 0 1 .746.746.744.744 0 0 1-.746.747.744.744 0 0 1-.747-.747.744.744 0 0 1 .747-.747zm.445.3a.63.63 0 0 0-.89 0 .63.63 0 0 0 0 .892.63.63 0 0 0 .89 0 .63.63 0 0 0 0-.891z"/><path d="M3.396 4.59h-1.73c-.17 0-.216-1.13.787-1.13a.5.5 0 0 0 .34.143.5.5 0 0 0 .34-.143c.249 0 .433.07.567.176a.97.97 0 0 0-.304.955z"/><path fill-rule="nonzero" d="M2.267 2.717c.04.157.117.298.216.398a.44.44 0 0 0 .31.144.45.45 0 0 0 .326-.162.9.9 0 0 0 .212-.44.08.08 0 0 1 .033-.05c.065-.05.091-.105.092-.146a.08.08 0 0 1-.088-.037c-.029-.048-.041-.3-.274-.387a1 1 0 0 0-.145-.04c-.435-.08-.404.153-.402.153a.08.08 0 0 1-.087.09c-.302-.008-.238.164-.237.164a.08.08 0 0 1-.098.096c.012.04.047.1.121.178a.1.1 0 0 1 .021.04zm.104.51a1.03 1.03 0 0 1-.253-.455c-.114-.124-.154-.227-.155-.298q0-.052.023-.087a.13.13 0 0 1 .064-.054c-.02-.172-.015-.49.293-.523.018-.124.117-.328.585-.243q.09.015.172.047a.75.75 0 0 1 .35.254.54.54 0 0 1 .09.442.14.14 0 0 1 .059.068q.016.036.015.083a.35.35 0 0 1-.133.255 1.06 1.06 0 0 1-.246.488.6.6 0 0 1-.443.213.6.6 0 0 1-.421-.19"/></g></svg>