<svg xmlns="http://www.w3.org/2000/svg" xml:space="preserve" fill-rule="evenodd" clip-rule="evenodd" image-rendering="optimizeQuality" shape-rendering="geometricPrecision" text-rendering="geometricPrecision" viewBox="0 0 6.827 6.827"><circle fill="#8C6AE2" cx="3.413" cy="3.413" r="3.413"/><g fill="#fffffe"><path d="M4.342 3.452a.914.914 0 1 1 0 1.828.914.914 0 0 1 0-1.828zm-.027 1.41v-.1a.361.361 0 0 1-.12-.032.21.21 0 0 1-.08-.077.274.274 0 0 1-.038-.13l.098-.018a.249.249 0 0 0 .04.116.15.15 0 0 0 .1.059v-.313a.411.411 0 0 1-.124-.047.182.182 0 0 1-.072-.073.215.215 0 0 1-.025-.105c0-.07.024-.127.074-.17a.258.258 0 0 1 .147-.054v-.047h.058v.047a.243.243 0 0 1 .136.05.223.223 0 0 1 .078.147l-.102.016a.167.167 0 0 0-.036-.09.133.133 0 0 0-.076-.04v.284a.8.8 0 0 1 .099.029c.03.013.055.03.074.049.02.02.035.042.045.069a.24.24 0 0 1 .016.086.238.238 0 0 1-.234.244v.1h-.058zm0-.862a.145.145 0 0 0-.09.046.128.128 0 0 0-.033.088c0 .033.01.061.028.084.019.023.05.04.095.054V4zm.058.68a.146.146 0 0 0 .095-.05.154.154 0 0 0 .038-.106.133.133 0 0 0-.027-.085.23.23 0 0 0-.106-.059v.3zm-.031-1.06a.744.744 0 0 1 .746.746.744.744 0 0 1-.746.747.744.744 0 0 1-.747-.747.744.744 0 0 1 .747-.747zm.445.3a.628.628 0 0 0-.89 0 .628.628 0 0 0 0 .892.628.628 0 0 0 .89 0 .628.628 0 0 0 0-.891z"/><path d="M3.396 4.59h-1.73c-.17 0-.216-1.13.787-1.13a.5.5 0 0 0 .34.143.507.507 0 0 0 .34-.143c.249 0 .433.07.567.176a.97.97 0 0 0-.304.955z"/><path d="M2.267 2.717c.04.157.117.298.216.398a.44.44 0 0 0 .31.144.452.452 0 0 0 .326-.162.906.906 0 0 0 .212-.44.079.079 0 0 1 .033-.05c.065-.05.091-.105.092-.146a.08.08 0 0 1-.088-.037c-.029-.048-.041-.3-.274-.387a.844.844 0 0 0-.145-.04c-.435-.08-.404.153-.402.153a.08.08 0 0 1-.087.09c-.302-.008-.238.164-.237.164a.08.08 0 0 1-.098.096c.012.04.047.1.121.178a.078.078 0 0 1 .021.04zm.104.51a1.03 1.03 0 0 1-.253-.455c-.114-.124-.154-.227-.155-.298 0-.034.008-.064.023-.087a.127.127 0 0 1 .064-.054c-.02-.172-.015-.49.293-.523.018-.124.117-.328.585-.243.06.01.118.026.172.047a.748.748 0 0 1 .35.254.54.54 0 0 1 .09.442.141.141 0 0 1 .059.068c.01.024.016.052.015.083a.353.353 0 0 1-.133.255 1.06 1.06 0 0 1-.246.488.607.607 0 0 1-.443.213.597.597 0 0 1-.421-.19z" fill-rule="nonzero"/></g></svg>
