<svg xmlns="http://www.w3.org/2000/svg" fill-rule="evenodd" image-rendering="optimizeQuality" shape-rendering="geometricPrecision" viewBox="0 0 6.827 6.827"><path d="M3.413 0a3.413 3.413 0 1 1 0 6.826 3.413 3.413 0 0 1 0-6.826z" fill="#FCDE6F"/><g fill="#fff"><g fill-rule="nonzero"><path d="M2.62 3.028v1.891h-.484V3.028zm2.071 0v1.891h-.485V3.028z"/><path d="M1.913 4.798h3v.177h-3zm-.314.276h3.628v.177H1.599z"/></g><path d="M4.004 3.888a.59.59 0 0 0-.591-.591.59.59 0 0 0-.591.591.59.59 0 0 0 .591.591.59.59 0 0 0 .591-.591zm-.369.118c0 .053-.017.097-.051.132s-.077.054-.131.057v.077h-.045v-.076a.28.28 0 0 1-.093-.026c-.024-.012-.045-.032-.062-.06s-.028-.061-.03-.101l.077-.014a.192.192 0 0 0 .031.09.11.11 0 0 0 .077.045v-.243a.32.32 0 0 1-.096-.037c-.024-.014-.043-.032-.056-.057s-.02-.051-.02-.082c0-.054.019-.098.058-.132a.2.2 0 0 1 .115-.042V3.5h.045v.037c.044.004.08.017.106.039a.177.177 0 0 1 .06.114l-.079.012a.13.13 0 0 0-.028-.069.103.103 0 0 0-.059-.032v.22l.076.023c.024.01.043.023.058.038s.027.033.035.053.012.043.012.067z"/><path d="M3.409 3.815v-.211a.106.106 0 0 0-.096.104c0 .026.007.048.022.065s.039.032.074.042zm.118.278c.019-.022.029-.049.029-.082s-.007-.05-.021-.067-.041-.032-.082-.045v.233a.117.117 0 0 0 .074-.039zM3.413 2.17a.228.228 0 1 1 0 .456.228.228 0 0 1 0-.456zm1.867.799-.146-.109L3.45 1.602l-.036-.027-.036.027L1.693 2.86l-.146.109H5.28z"/></g></svg>
