<svg xmlns="http://www.w3.org/2000/svg" fill-rule="evenodd" image-rendering="optimizeQuality" shape-rendering="geometricPrecision" viewBox="0 0 6.827 6.827"><path fill="#f5cf40" d="M3.413 0a3.413 3.413 0 1 1 0 6.826 3.413 3.413 0 0 1 0-6.826"/><g fill="#fff"><g fill-rule="nonzero"><path d="M2.62 3.028v1.891h-.484V3.028zm2.071 0v1.891h-.485V3.028z"/><path d="M1.913 4.798h3v.177h-3zm-.314.276h3.628v.177H1.599z"/></g><path d="M4.004 3.888a.59.59 0 0 0-.591-.591.59.59 0 0 0-.591.591.59.59 0 0 0 .591.591.59.59 0 0 0 .591-.591m-.369.118q0 .08-.051.132c-.051.052-.077.054-.131.057v.077h-.045v-.076a.3.3 0 0 1-.093-.026q-.036-.018-.062-.06a.17.17 0 0 1-.03-.101l.077-.014a.2.2 0 0 0 .031.09.11.11 0 0 0 .077.045v-.243a.3.3 0 0 1-.096-.037q-.036-.02-.056-.057c-.02-.037-.02-.051-.02-.082q0-.081.058-.132a.2.2 0 0 1 .115-.042V3.5h.045v.037q.067.006.106.039a.18.18 0 0 1 .06.114l-.079.012a.13.13 0 0 0-.028-.069.1.1 0 0 0-.059-.032v.22l.076.023q.036.015.058.038c.022.023.027.033.035.053s.012.043.012.067z"/><path d="M3.409 3.815v-.211a.106.106 0 0 0-.096.104q0 .04.022.065c.022.025.039.032.074.042m.118.278q.029-.033.029-.082c0-.049-.007-.05-.021-.067s-.041-.032-.082-.045v.233a.12.12 0 0 0 .074-.039M3.413 2.17a.228.228 0 1 1 0 .456.228.228 0 0 1 0-.456m1.867.799-.146-.109L3.45 1.602l-.036-.027-.036.027L1.693 2.86l-.146.109z"/></g></svg>