<svg xmlns="http://www.w3.org/2000/svg" viewBox="0 0 6.827 6.827"><circle fill="#D63F31" cx="3.413" cy="3.413" r="3.413"/><path d="M2.106 1.845v2.908h1.982c.017 0 .031.014.031.031v.236a.27.27 0 0 0 .073.185.238.238 0 0 0 .35 0 .268.268 0 0 0 .073-.185V1.808c0-.088.035-.169.09-.227.012-.012.024-.024.038-.034H2.39c-.078 0-.149.033-.201.087s-.084.129-.084.211zm.877.545h1.284v.078H2.982V2.39zm0 .829h1.284v.078H2.982v-.078zm-.504-.233h.311v.311h-.311v-.311zm.504 1.062h1.284v.078H2.982v-.078zM2.48 2.237l.137.137.218-.218.055.055-.245.245-.027.027-.027-.027-.165-.165.055-.055zm-.003 1.578h.311v.311h-.311v-.311z" fill="#fffffe"/><path d="M4.672 2.013h.606v-.167c0-.082-.032-.157-.084-.211s-.123-.087-.201-.087h-.085c-.064.003-.122.031-.164.076s-.073.113-.073.185v.205zM1.549 4.811l-.001.171c0 .082.032.157.084.211s.123.087.201.087H4.19a.46.46 0 0 1-.041-.036.324.324 0 0 1-.089-.225v-.208H1.549z" fill="#fffffe"/></svg>
