<svg xmlns="http://www.w3.org/2000/svg" xmlns:xlink="http://www.w3.org/1999/xlink" zoomAndPan="magnify" preserveAspectRatio="xMidYMid meet" version="1.0" viewBox="0.16 -0.03 104.96 87.89"><defs><clipPath id="2bc13689a0"><path d="M 93.730469 21.792969 L 105.121094 21.792969 L 105.121094 87.855469 L 93.730469 87.855469 Z M 93.730469 21.792969 " clip-rule="nonzero"/></clipPath><clipPath id="29e6e61577"><path d="M 101.390625 87.855469 L 97.460938 87.855469 C 95.402344 87.855469 93.730469 86.1875 93.730469 84.128906 L 93.730469 25.550781 C 93.730469 23.492188 95.402344 21.824219 97.460938 21.824219 L 101.390625 21.824219 C 103.453125 21.824219 105.121094 23.492188 105.121094 25.550781 L 105.121094 84.128906 C 105.121094 86.1875 103.453125 87.855469 101.390625 87.855469 Z M 101.390625 87.855469 " clip-rule="nonzero"/></clipPath><clipPath id="445135a650"><path d="M 0.171875 43.910156 L 11.546875 43.910156 L 11.546875 87.863281 L 0.171875 87.863281 Z M 0.171875 43.910156 " clip-rule="nonzero"/></clipPath><clipPath id="6c9e4fc87f"><path d="M 7.820312 87.863281 L 3.886719 87.863281 C 1.828125 87.863281 0.160156 86.195312 0.160156 84.136719 L 0.160156 47.65625 C 0.160156 45.59375 1.828125 43.925781 3.886719 43.925781 L 7.820312 43.925781 C 9.878906 43.925781 11.546875 45.59375 11.546875 47.65625 L 11.546875 84.136719 C 11.546875 86.195312 9.878906 87.863281 7.820312 87.863281 Z M 7.820312 87.863281 " clip-rule="nonzero"/></clipPath><clipPath id="7f7dda9fc9"><path d="M 70.339844 10.273438 L 81.726562 10.273438 L 81.726562 87.859375 L 70.339844 87.859375 Z M 70.339844 10.273438 " clip-rule="nonzero"/></clipPath><clipPath id="8dfb9efd02"><path d="M 78 87.859375 L 74.066406 87.859375 C 72.007812 87.859375 70.339844 86.191406 70.339844 84.128906 L 70.339844 14.019531 C 70.339844 11.960938 72.007812 10.289062 74.066406 10.289062 L 78 10.289062 C 80.058594 10.289062 81.726562 11.960938 81.726562 14.019531 L 81.726562 84.128906 C 81.726562 86.191406 80.058594 87.859375 78 87.859375 Z M 78 87.859375 " clip-rule="nonzero"/></clipPath><clipPath id="37f6ee55a8"><path d="M 23.550781 21.792969 L 34.941406 21.792969 L 34.941406 87.855469 L 23.550781 87.855469 Z M 23.550781 21.792969 " clip-rule="nonzero"/></clipPath><clipPath id="859a201991"><path d="M 31.210938 87.855469 L 27.28125 87.855469 C 25.222656 87.855469 23.550781 86.1875 23.550781 84.128906 L 23.550781 25.550781 C 23.550781 23.492188 25.222656 21.824219 27.28125 21.824219 L 31.210938 21.824219 C 33.269531 21.824219 34.941406 23.492188 34.941406 25.550781 L 34.941406 84.128906 C 34.941406 86.1875 33.269531 87.855469 31.210938 87.855469 Z M 31.210938 87.855469 " clip-rule="nonzero"/></clipPath><clipPath id="9679b2c591"><path d="M 46.945312 0 L 58.335938 0 L 58.335938 87.851562 L 46.945312 87.851562 Z M 46.945312 0 " clip-rule="nonzero"/></clipPath><clipPath id="79edfe9e2c"><path d="M 54.605469 87.851562 L 50.675781 87.851562 C 48.613281 87.851562 46.945312 86.179688 46.945312 84.121094 L 46.945312 3.703125 C 46.945312 1.644531 48.613281 -0.0273438 50.675781 -0.0273438 L 54.605469 -0.0273438 C 56.664062 -0.0273438 58.335938 1.644531 58.335938 3.703125 L 58.335938 84.121094 C 58.335938 86.179688 56.664062 87.851562 54.605469 87.851562 Z M 54.605469 87.851562 " clip-rule="nonzero"/></clipPath></defs><g clip-path="url(#2bc13689a0)"><g clip-path="url(#29e6e61577)"><path fill="#e41d5a" d="M 105.121094 87.855469 L 93.730469 87.855469 L 93.730469 21.835938 L 105.121094 21.835938 Z M 105.121094 87.855469 " fill-opacity="1" fill-rule="nonzero"/></g></g><g clip-path="url(#445135a650)"><g clip-path="url(#6c9e4fc87f)"><path fill="#19b5d0" d="M 11.546875 87.863281 L 0.160156 87.863281 L 0.160156 43.910156 L 11.546875 43.910156 Z M 11.546875 87.863281 " fill-opacity="1" fill-rule="nonzero"/></g></g><g clip-path="url(#7f7dda9fc9)"><g clip-path="url(#8dfb9efd02)"><path fill="#ec7031" d="M 81.726562 87.859375 L 70.339844 87.859375 L 70.339844 10.273438 L 81.726562 10.273438 Z M 81.726562 87.859375 " fill-opacity="1" fill-rule="nonzero"/></g></g><g clip-path="url(#37f6ee55a8)"><g clip-path="url(#859a201991)"><path fill="#00ac8a" d="M 34.941406 87.855469 L 23.550781 87.855469 L 23.550781 21.835938 L 34.941406 21.835938 Z M 34.941406 87.855469 " fill-opacity="1" fill-rule="nonzero"/></g></g><g clip-path="url(#9679b2c591)"><g clip-path="url(#79edfe9e2c)"><path fill="#f2bd3c" d="M 58.335938 87.851562 L 46.945312 87.851562 L 46.945312 -0.0117188 L 58.335938 -0.0117188 Z M 58.335938 87.851562 " fill-opacity="1" fill-rule="nonzero"/></g></g></svg>