<?xml version="1.0" encoding="UTF-8" standalone="no"?>
<svg
   viewBox="0 0 741 472"
   version="1.1"
   id="svg4"
   xml:space="preserve"
   xmlns="http://www.w3.org/2000/svg"
   xmlns:svg="http://www.w3.org/2000/svg"><defs
     id="defs8" /><path
     fill="#ff0066"
     d="M 622.69361,17.77808 C 785.6427,87.144595 779.2385,376.17167 613.44325,451.31874 446.93632,525.82351 121.03822,386.44821 123.88449,241.93467 127.44233,97.421105 459.74458,-52.23071 622.69361,17.77808 Z"
     id="path2"
     style="opacity:1;stroke-width:6.76039" /><path
     fill="#ff0066"
     d="m 121.62276,329.34148 c 15.36145,18.09476 25.28732,40.48703 22.45136,62.8793 -2.95413,22.39227 -18.78825,44.78454 -42.42125,58.01633 -23.514852,13.1187 -54.828582,16.96384 -73.853152,4.97606 C 8.6569775,443.22539 1.6852375,415.40469 0.26725754,391.42913 -1.1507225,367.56667 2.9850575,347.54934 14.801558,330.24622 c 11.69834,-17.30312 31.19557,-31.89202 51.16546,-32.34439 19.9699,-0.45237 40.412452,13.45798 55.655742,31.43965 z"
     id="path1410"
     style="stroke-width:1.15601" /><path
     fill="#ff0066"
     d="m 166.90664,33.801585 c 8.95179,11.98504 14.73603,26.81653 13.08339,41.64802 -1.7215,14.83148 -10.94874,29.662965 -24.72072,38.427025 -13.70313,8.68915 -31.95101,11.23597 -43.03746,3.29589 -11.15531,-7.94009 -15.218052,-26.367085 -16.044362,-42.247265 -0.82632,-15.80527 1.58378,-29.06372 8.469772,-40.52442 6.81713,-11.460686 18.17902,-21.123626 29.81635,-21.423256 11.63733,-0.29962 23.5501,8.91388 32.43303,20.824006 z"
     id="path1410-3"
     style="stroke-width:0.718197" /></svg>
