<svg xmlns="http://www.w3.org/2000/svg" xmlns:xlink="http://www.w3.org/1999/xlink" zoomAndPan="magnify" preserveAspectRatio="xMidYMid meet" version="1.0" viewBox="0.99 14.95 310.12 37.37"><defs><g/><clipPath id="7304f1f065"><path d="M 40.464844 24.167969 L 45.273438 24.167969 L 45.273438 52.042969 L 40.464844 52.042969 Z M 40.464844 24.167969 " clip-rule="nonzero"/></clipPath><clipPath id="2ec2ea712b"><path d="M 42.871094 52.042969 C 42.230469 52.042969 41.621094 51.789062 41.171875 51.335938 C 40.71875 50.886719 40.464844 50.277344 40.464844 49.640625 L 40.464844 26.585938 C 40.464844 25.945312 40.71875 25.335938 41.171875 24.886719 C 41.621094 24.433594 42.230469 24.183594 42.871094 24.183594 C 43.507812 24.183594 44.117188 24.433594 44.566406 24.886719 C 45.019531 25.335938 45.273438 25.945312 45.273438 26.585938 L 45.273438 49.640625 C 45.273438 50.277344 45.019531 50.886719 44.566406 51.335938 C 44.117188 51.789062 43.507812 52.042969 42.871094 52.042969 Z M 42.871094 52.042969 " clip-rule="nonzero"/></clipPath><clipPath id="24044ee243"><path d="M 0.992188 33.5 L 5.792969 33.5 L 5.792969 52.042969 L 0.992188 52.042969 Z M 0.992188 33.5 " clip-rule="nonzero"/></clipPath><clipPath id="7215643e3d"><path d="M 3.390625 52.042969 C 2.753906 52.042969 2.140625 51.792969 1.691406 51.339844 C 1.242188 50.890625 0.988281 50.277344 0.988281 49.640625 L 0.988281 35.910156 C 0.988281 35.273438 1.242188 34.660156 1.691406 34.210938 C 2.140625 33.761719 2.753906 33.507812 3.390625 33.507812 C 4.027344 33.507812 4.640625 33.761719 5.089844 34.210938 C 5.539062 34.660156 5.792969 35.273438 5.792969 35.910156 L 5.792969 49.640625 C 5.792969 50.277344 5.539062 50.890625 5.089844 51.339844 C 4.640625 51.792969 4.027344 52.042969 3.390625 52.042969 Z M 3.390625 52.042969 " clip-rule="nonzero"/></clipPath><clipPath id="5f2abb545c"><path d="M 30.597656 19.308594 L 35.402344 19.308594 L 35.402344 52.042969 L 30.597656 52.042969 Z M 30.597656 19.308594 " clip-rule="nonzero"/></clipPath><clipPath id="f5547a7533"><path d="M 33 52.042969 C 32.363281 52.042969 31.75 51.789062 31.300781 51.339844 C 30.851562 50.886719 30.597656 50.277344 30.597656 49.640625 L 30.597656 21.71875 C 30.597656 21.082031 30.851562 20.46875 31.300781 20.019531 C 31.75 19.570312 32.363281 19.316406 33 19.316406 C 33.636719 19.316406 34.246094 19.570312 34.699219 20.019531 C 35.148438 20.46875 35.402344 21.082031 35.402344 21.71875 L 35.402344 49.640625 C 35.402344 50.277344 35.148438 50.886719 34.699219 51.339844 C 34.246094 51.789062 33.636719 52.042969 33 52.042969 Z M 33 52.042969 " clip-rule="nonzero"/></clipPath><clipPath id="98dd9fb190"><path d="M 10.859375 24.167969 L 15.664062 24.167969 L 15.664062 52.042969 L 10.859375 52.042969 Z M 10.859375 24.167969 " clip-rule="nonzero"/></clipPath><clipPath id="bc8f5295b3"><path d="M 13.261719 52.042969 C 12.625 52.042969 12.011719 51.789062 11.5625 51.335938 C 11.109375 50.886719 10.859375 50.277344 10.859375 49.640625 L 10.859375 26.585938 C 10.859375 25.945312 11.109375 25.335938 11.5625 24.886719 C 12.011719 24.433594 12.625 24.183594 13.261719 24.183594 C 13.898438 24.183594 14.507812 24.433594 14.960938 24.886719 C 15.410156 25.335938 15.664062 25.945312 15.664062 26.585938 L 15.664062 49.640625 C 15.664062 50.277344 15.410156 50.886719 14.960938 51.335938 C 14.507812 51.789062 13.898438 52.042969 13.261719 52.042969 Z M 13.261719 52.042969 " clip-rule="nonzero"/></clipPath><clipPath id="b88c70586c"><path d="M 20.726562 14.953125 L 25.53125 14.953125 L 25.53125 52.039062 L 20.726562 52.039062 Z M 20.726562 14.953125 " clip-rule="nonzero"/></clipPath><clipPath id="457011597d"><path d="M 23.128906 52.039062 C 22.492188 52.039062 21.882812 51.785156 21.429688 51.335938 C 20.980469 50.886719 20.726562 50.273438 20.726562 49.636719 L 20.726562 17.367188 C 20.726562 16.730469 20.980469 16.117188 21.429688 15.667969 C 21.882812 15.21875 22.492188 14.964844 23.128906 14.964844 C 23.765625 14.964844 24.378906 15.21875 24.828125 15.667969 C 25.277344 16.117188 25.53125 16.730469 25.53125 17.367188 L 25.53125 49.636719 C 25.53125 50.273438 25.277344 50.886719 24.828125 51.335938 C 24.378906 51.785156 23.765625 52.039062 23.128906 52.039062 Z M 23.128906 52.039062 " clip-rule="nonzero"/></clipPath></defs><g fill="#000000" fill-opacity="1"><g transform="translate(52.486267, 51.293328)"><g><path d="M 2.46875 0 L 2.46875 -28.921875 L 15.0625 -28.921875 C 17.675781 -28.921875 19.734375 -28.265625 21.234375 -26.953125 C 22.734375 -25.648438 23.484375 -23.859375 23.484375 -21.578125 C 23.484375 -19.898438 23.007812 -18.484375 22.0625 -17.328125 C 21.113281 -16.171875 19.828125 -15.441406 18.203125 -15.140625 L 18.203125 -15.109375 C 20.203125 -14.828125 21.773438 -14.039062 22.921875 -12.75 C 24.066406 -11.457031 24.640625 -9.832031 24.640625 -7.875 C 24.640625 -5.457031 23.785156 -3.539062 22.078125 -2.125 C 20.367188 -0.707031 18.03125 0 15.0625 0 Z M 4.171875 -15.84375 L 14.984375 -15.84375 C 17.097656 -15.84375 18.757812 -16.359375 19.96875 -17.390625 C 21.175781 -18.421875 21.78125 -19.816406 21.78125 -21.578125 C 21.78125 -23.335938 21.175781 -24.734375 19.96875 -25.765625 C 18.757812 -26.796875 17.097656 -27.3125 14.984375 -27.3125 L 4.171875 -27.3125 Z M 4.171875 -1.609375 L 14.984375 -1.609375 C 17.429688 -1.609375 19.367188 -2.175781 20.796875 -3.3125 C 22.222656 -4.457031 22.9375 -5.992188 22.9375 -7.921875 C 22.9375 -9.878906 22.222656 -11.421875 20.796875 -12.546875 C 19.367188 -13.671875 17.429688 -14.234375 14.984375 -14.234375 L 4.171875 -14.234375 Z M 4.171875 -1.609375 "/></g></g></g><g fill="#000000" fill-opacity="1"><g transform="translate(78.773733, 51.293328)"><g><path d="M 9.65625 -21.5 C 11.25 -21.5 12.601562 -20.988281 13.71875 -19.96875 C 14.832031 -18.957031 15.5 -17.304688 15.71875 -15.015625 L 14.234375 -14.53125 C 14.046875 -16.394531 13.53125 -17.757812 12.6875 -18.625 C 11.851562 -19.5 10.785156 -19.9375 9.484375 -19.9375 C 7.785156 -19.9375 6.398438 -19.238281 5.328125 -17.84375 C 4.253906 -16.457031 3.71875 -14.664062 3.71875 -12.46875 L 3.71875 0 L 2.0625 0 L 2.0625 -20.671875 L 3.59375 -20.671875 L 3.59375 -17.328125 L 3.625 -17.328125 C 4.207031 -18.597656 5.019531 -19.609375 6.0625 -20.359375 C 7.113281 -21.117188 8.3125 -21.5 9.65625 -21.5 Z M 9.65625 -21.5 "/></g></g></g><g fill="#000000" fill-opacity="1"><g transform="translate(95.73472, 51.293328)"><g><path d="M 12.625 0.828125 C 10.425781 0.828125 8.46875 0.347656 6.75 -0.609375 C 5.03125 -1.578125 3.679688 -2.90625 2.703125 -4.59375 C 1.722656 -6.289062 1.234375 -8.226562 1.234375 -10.40625 C 1.234375 -12.550781 1.679688 -14.460938 2.578125 -16.140625 C 3.472656 -17.816406 4.703125 -19.128906 6.265625 -20.078125 C 7.835938 -21.023438 9.628906 -21.5 11.640625 -21.5 C 13.585938 -21.5 15.285156 -21.015625 16.734375 -20.046875 C 18.179688 -19.085938 19.328125 -17.773438 20.171875 -16.109375 C 21.023438 -14.453125 21.492188 -12.535156 21.578125 -10.359375 L 21.578125 -9.78125 L 2.890625 -9.78125 C 2.972656 -8.019531 3.441406 -6.457031 4.296875 -5.09375 C 5.148438 -3.726562 6.296875 -2.660156 7.734375 -1.890625 C 9.179688 -1.128906 10.828125 -0.75 12.671875 -0.75 C 14.453125 -0.75 16.109375 -1.191406 17.640625 -2.078125 C 19.171875 -2.972656 20.289062 -4.109375 21 -5.484375 L 22.453125 -4.78125 C 21.898438 -3.6875 21.117188 -2.710938 20.109375 -1.859375 C 19.109375 -1.003906 17.96875 -0.34375 16.6875 0.125 C 15.40625 0.59375 14.050781 0.828125 12.625 0.828125 Z M 2.9375 -11.34375 L 19.890625 -11.34375 C 19.773438 -13.050781 19.347656 -14.550781 18.609375 -15.84375 C 17.867188 -17.132812 16.898438 -18.140625 15.703125 -18.859375 C 14.503906 -19.578125 13.132812 -19.9375 11.59375 -19.9375 C 10 -19.9375 8.566406 -19.570312 7.296875 -18.84375 C 6.035156 -18.113281 5.023438 -17.097656 4.265625 -15.796875 C 3.515625 -14.503906 3.070312 -13.019531 2.9375 -11.34375 Z M 2.9375 -11.34375 "/></g></g></g><g fill="#000000" fill-opacity="1"><g transform="translate(119.463592, 51.293328)"><g><path d="M 12.25 -21.5 C 14.695312 -21.5 16.609375 -20.796875 17.984375 -19.390625 C 19.367188 -17.992188 20.0625 -16.054688 20.0625 -13.578125 L 20.0625 0 L 18.40625 0 L 18.40625 -13.5 C 18.40625 -15.5 17.835938 -17.070312 16.703125 -18.21875 C 15.578125 -19.363281 14.015625 -19.9375 12.015625 -19.9375 C 9.453125 -19.9375 7.425781 -19.195312 5.9375 -17.71875 C 4.457031 -16.25 3.71875 -14.316406 3.71875 -11.921875 L 3.71875 0 L 2.0625 0 L 2.0625 -20.671875 L 3.625 -20.671875 L 3.71875 -16.75 L 3.75 -16.75 C 4.46875 -18.238281 5.5625 -19.398438 7.03125 -20.234375 C 8.507812 -21.078125 10.25 -21.5 12.25 -21.5 Z M 12.25 -21.5 "/></g></g></g><g fill="#000000" fill-opacity="1"><g transform="translate(141.789367, 51.293328)"><g><path d="M 12.25 -21.5 C 14.695312 -21.5 16.609375 -20.796875 17.984375 -19.390625 C 19.367188 -17.992188 20.0625 -16.054688 20.0625 -13.578125 L 20.0625 0 L 18.40625 0 L 18.40625 -13.5 C 18.40625 -15.5 17.835938 -17.070312 16.703125 -18.21875 C 15.578125 -19.363281 14.015625 -19.9375 12.015625 -19.9375 C 9.453125 -19.9375 7.425781 -19.195312 5.9375 -17.71875 C 4.457031 -16.25 3.71875 -14.316406 3.71875 -11.921875 L 3.71875 0 L 2.0625 0 L 2.0625 -20.671875 L 3.625 -20.671875 L 3.71875 -16.75 L 3.75 -16.75 C 4.46875 -18.238281 5.5625 -19.398438 7.03125 -20.234375 C 8.507812 -21.078125 10.25 -21.5 12.25 -21.5 Z M 12.25 -21.5 "/></g></g></g><g fill="#000000" fill-opacity="1"><g transform="translate(164.115141, 51.293328)"><g><path d="M 8.5 0.828125 C 6.164062 0.828125 4.300781 0.316406 2.90625 -0.703125 C 1.519531 -1.722656 0.828125 -3.097656 0.828125 -4.828125 C 0.828125 -5.898438 1.128906 -6.882812 1.734375 -7.78125 C 2.335938 -8.675781 3.394531 -9.457031 4.90625 -10.125 C 6.425781 -10.800781 8.546875 -11.332031 11.265625 -11.71875 L 16.671875 -12.46875 C 17.410156 -12.550781 17.78125 -12.921875 17.78125 -13.578125 C 17.78125 -15.859375 17.113281 -17.5 15.78125 -18.5 C 14.445312 -19.507812 12.765625 -20.015625 10.734375 -20.015625 C 9.296875 -20.015625 8 -19.722656 6.84375 -19.140625 C 5.6875 -18.566406 4.78125 -17.804688 4.125 -16.859375 C 3.46875 -15.910156 3.140625 -14.867188 3.140625 -13.734375 L 1.53125 -14.3125 C 1.632812 -15.632812 2.097656 -16.84375 2.921875 -17.9375 C 3.753906 -19.039062 4.847656 -19.921875 6.203125 -20.578125 C 7.566406 -21.242188 9.078125 -21.578125 10.734375 -21.578125 C 12.410156 -21.578125 13.894531 -21.28125 15.1875 -20.6875 C 16.476562 -20.101562 17.5 -19.21875 18.25 -18.03125 C 19.007812 -16.851562 19.390625 -15.34375 19.390625 -13.5 L 19.390625 -2.6875 C 19.390625 -2.082031 19.539062 -1.609375 19.84375 -1.265625 C 20.144531 -0.921875 20.546875 -0.75 21.046875 -0.75 C 21.429688 -0.75 21.828125 -0.878906 22.234375 -1.140625 C 22.648438 -1.398438 23 -1.75 23.28125 -2.1875 L 24.34375 -1.109375 C 23.957031 -0.535156 23.445312 -0.0703125 22.8125 0.28125 C 22.1875 0.644531 21.539062 0.828125 20.875 0.828125 C 19.945312 0.828125 19.195312 0.523438 18.625 -0.078125 C 18.0625 -0.679688 17.769531 -1.476562 17.75 -2.46875 L 17.75 -4.90625 L 17.703125 -4.90625 C 17.015625 -3.144531 15.859375 -1.75 14.234375 -0.71875 C 12.609375 0.3125 10.695312 0.828125 8.5 0.828125 Z M 8.625 -0.75 C 10.382812 -0.75 11.941406 -1.117188 13.296875 -1.859375 C 14.660156 -2.597656 15.742188 -3.632812 16.546875 -4.96875 C 17.347656 -6.300781 17.75 -7.878906 17.75 -9.703125 L 17.75 -11.0625 L 11.390625 -10.15625 C 8.972656 -9.820312 7.125 -9.382812 5.84375 -8.84375 C 4.5625 -8.3125 3.675781 -7.707031 3.1875 -7.03125 C 2.707031 -6.363281 2.46875 -5.628906 2.46875 -4.828125 C 2.46875 -3.585938 3.023438 -2.597656 4.140625 -1.859375 C 5.253906 -1.117188 6.75 -0.75 8.625 -0.75 Z M 8.625 -0.75 "/></g></g></g><g fill="#000000" fill-opacity="1"><g transform="translate(188.875705, 51.293328)"><g/></g></g><g fill="#000000" fill-opacity="1"><g transform="translate(200.760777, 51.293328)"><g><path d="M 12.875 1.03125 C 10.726562 1.03125 8.796875 0.625 7.078125 -0.1875 C 5.359375 -1 3.953125 -2.144531 2.859375 -3.625 C 1.773438 -5.113281 1.097656 -6.863281 0.828125 -8.875 L 2.46875 -9.25 C 2.695312 -7.507812 3.269531 -5.984375 4.1875 -4.671875 C 5.113281 -3.367188 6.316406 -2.359375 7.796875 -1.640625 C 9.285156 -0.929688 10.976562 -0.578125 12.875 -0.578125 C 15.570312 -0.578125 17.71875 -1.203125 19.3125 -2.453125 C 20.90625 -3.703125 21.703125 -5.347656 21.703125 -7.390625 C 21.703125 -9.015625 21.160156 -10.320312 20.078125 -11.3125 C 18.992188 -12.300781 17.238281 -13.082031 14.8125 -13.65625 L 9.609375 -14.859375 C 4.796875 -15.953125 2.40625 -18.234375 2.4375 -21.703125 C 2.4375 -24.210938 3.265625 -26.210938 4.921875 -27.703125 C 6.585938 -29.203125 8.828125 -29.953125 11.640625 -29.953125 C 14.171875 -29.953125 16.316406 -29.203125 18.078125 -27.703125 C 19.835938 -26.210938 20.9375 -24.203125 21.375 -21.671875 L 19.765625 -21.296875 C 19.410156 -23.441406 18.503906 -25.148438 17.046875 -26.421875 C 15.585938 -27.703125 13.796875 -28.34375 11.671875 -28.34375 C 9.367188 -28.34375 7.523438 -27.75 6.140625 -26.5625 C 4.765625 -25.382812 4.078125 -23.820312 4.078125 -21.875 C 4.078125 -20.46875 4.554688 -19.34375 5.515625 -18.5 C 6.484375 -17.664062 8.015625 -17 10.109375 -16.5 L 15.3125 -15.265625 C 20.695312 -14.054688 23.390625 -11.5 23.390625 -7.59375 C 23.390625 -5.863281 22.957031 -4.347656 22.09375 -3.046875 C 21.226562 -1.753906 20.007812 -0.75 18.4375 -0.03125 C 16.875 0.675781 15.019531 1.03125 12.875 1.03125 Z M 12.875 1.03125 "/></g></g></g><g fill="#000000" fill-opacity="1"><g transform="translate(225.397553, 51.293328)"><g><path d="M 3.140625 0.40625 C 2.691406 0.40625 2.332031 0.273438 2.0625 0.015625 C 1.789062 -0.242188 1.65625 -0.59375 1.65625 -1.03125 C 1.65625 -1.445312 1.789062 -1.789062 2.0625 -2.0625 C 2.332031 -2.332031 2.691406 -2.46875 3.140625 -2.46875 C 3.578125 -2.46875 3.925781 -2.332031 4.1875 -2.0625 C 4.445312 -1.789062 4.578125 -1.445312 4.578125 -1.03125 C 4.578125 -0.613281 4.445312 -0.269531 4.1875 0 C 3.925781 0.269531 3.578125 0.40625 3.140625 0.40625 Z M 3.140625 0.40625 "/></g></g></g><g fill="#000000" fill-opacity="1"><g transform="translate(232.041642, 51.293328)"><g/></g></g><g fill="#000000" fill-opacity="1"><g transform="translate(243.926704, 51.293328)"><g><path d="M 16.796875 1.03125 C 13.710938 1.03125 11.019531 0.390625 8.71875 -0.890625 C 6.425781 -2.171875 4.640625 -3.972656 3.359375 -6.296875 C 2.078125 -8.617188 1.4375 -11.332031 1.4375 -14.4375 C 1.4375 -17.570312 2.078125 -20.300781 3.359375 -22.625 C 4.640625 -24.957031 6.425781 -26.757812 8.71875 -28.03125 C 11.019531 -29.3125 13.710938 -29.953125 16.796875 -29.953125 C 19.878906 -29.953125 22.566406 -29.3125 24.859375 -28.03125 C 27.160156 -26.757812 28.945312 -24.957031 30.21875 -22.625 C 31.5 -20.300781 32.140625 -17.570312 32.140625 -14.4375 C 32.140625 -11.332031 31.5 -8.617188 30.21875 -6.296875 C 28.945312 -3.972656 27.160156 -2.171875 24.859375 -0.890625 C 22.566406 0.390625 19.878906 1.03125 16.796875 1.03125 Z M 16.796875 -0.578125 C 19.546875 -0.578125 21.9375 -1.15625 23.96875 -2.3125 C 26.007812 -3.46875 27.597656 -5.082031 28.734375 -7.15625 C 29.878906 -9.238281 30.453125 -11.664062 30.453125 -14.4375 C 30.453125 -17.25 29.878906 -19.691406 28.734375 -21.765625 C 27.597656 -23.847656 26.007812 -25.460938 23.96875 -26.609375 C 21.9375 -27.765625 19.546875 -28.34375 16.796875 -28.34375 C 14.046875 -28.34375 11.644531 -27.765625 9.59375 -26.609375 C 7.539062 -25.460938 5.953125 -23.847656 4.828125 -21.765625 C 3.703125 -19.691406 3.140625 -17.25 3.140625 -14.4375 C 3.140625 -11.664062 3.703125 -9.238281 4.828125 -7.15625 C 5.953125 -5.082031 7.539062 -3.46875 9.59375 -2.3125 C 11.644531 -1.15625 14.046875 -0.578125 16.796875 -0.578125 Z M 16.796875 -0.578125 "/></g></g></g><g fill="#000000" fill-opacity="1"><g transform="translate(277.931204, 51.293328)"><g><path d="M 9.65625 -21.5 C 11.25 -21.5 12.601562 -20.988281 13.71875 -19.96875 C 14.832031 -18.957031 15.5 -17.304688 15.71875 -15.015625 L 14.234375 -14.53125 C 14.046875 -16.394531 13.53125 -17.757812 12.6875 -18.625 C 11.851562 -19.5 10.785156 -19.9375 9.484375 -19.9375 C 7.785156 -19.9375 6.398438 -19.238281 5.328125 -17.84375 C 4.253906 -16.457031 3.71875 -14.664062 3.71875 -12.46875 L 3.71875 0 L 2.0625 0 L 2.0625 -20.671875 L 3.59375 -20.671875 L 3.59375 -17.328125 L 3.625 -17.328125 C 4.207031 -18.597656 5.019531 -19.609375 6.0625 -20.359375 C 7.113281 -21.117188 8.3125 -21.5 9.65625 -21.5 Z M 9.65625 -21.5 "/></g></g></g><g fill="#000000" fill-opacity="1"><g transform="translate(294.89219, 51.293328)"><g><path d="M 10.234375 0.828125 C 8.503906 0.828125 7.125 0.289062 6.09375 -0.78125 C 5.0625 -1.851562 4.546875 -3.285156 4.546875 -5.078125 L 4.546875 -19.140625 L 0 -19.140625 L 0 -20.671875 L 4.546875 -20.671875 L 4.546875 -26.953125 L 6.1875 -27.4375 L 6.1875 -20.671875 L 15.3125 -20.671875 L 15.3125 -19.140625 L 6.1875 -19.140625 L 6.1875 -5.15625 C 6.1875 -3.8125 6.554688 -2.738281 7.296875 -1.9375 C 8.046875 -1.144531 9.050781 -0.75 10.3125 -0.75 C 11.445312 -0.75 12.429688 -1.097656 13.265625 -1.796875 C 14.109375 -2.492188 14.597656 -3.410156 14.734375 -4.546875 L 16.21875 -4 C 16 -2.570312 15.316406 -1.410156 14.171875 -0.515625 C 13.035156 0.378906 11.722656 0.828125 10.234375 0.828125 Z M 10.234375 0.828125 "/></g></g></g><g clip-path="url(#7304f1f065)"><g clip-path="url(#2ec2ea712b)"><path fill="#e41d5a" d="M 45.273438 52.042969 L 40.464844 52.042969 L 40.464844 24.1875 L 45.273438 24.1875 Z M 45.273438 52.042969 " fill-opacity="1" fill-rule="nonzero"/></g></g><g clip-path="url(#24044ee243)"><g clip-path="url(#7215643e3d)"><path fill="#19b5d0" d="M 5.792969 52.042969 L 0.988281 52.042969 L 0.988281 33.5 L 5.792969 33.5 Z M 5.792969 52.042969 " fill-opacity="1" fill-rule="nonzero"/></g></g><g clip-path="url(#5f2abb545c)"><g clip-path="url(#f5547a7533)"><path fill="#ec7031" d="M 35.402344 52.042969 L 30.597656 52.042969 L 30.597656 19.308594 L 35.402344 19.308594 Z M 35.402344 52.042969 " fill-opacity="1" fill-rule="nonzero"/></g></g><g clip-path="url(#98dd9fb190)"><g clip-path="url(#bc8f5295b3)"><path fill="#00ac8a" d="M 15.664062 52.042969 L 10.859375 52.042969 L 10.859375 24.1875 L 15.664062 24.1875 Z M 15.664062 52.042969 " fill-opacity="1" fill-rule="nonzero"/></g></g><g clip-path="url(#b88c70586c)"><g clip-path="url(#457011597d)"><path fill="#f2bd3c" d="M 25.53125 52.039062 L 20.726562 52.039062 L 20.726562 14.96875 L 25.53125 14.96875 Z M 25.53125 52.039062 " fill-opacity="1" fill-rule="nonzero"/></g></g></svg>