<svg xmlns="http://www.w3.org/2000/svg" version="1.0" viewBox="0.16 -0.03 104.96 87.89"><defs><clipPath id="a"><path d="M93.73 21.793h11.391v66.062h-11.39Zm0 0"/></clipPath><clipPath id="b"><path d="M101.39 87.855h-3.93a3.73 3.73 0 0 1-3.73-3.726V25.55a3.73 3.73 0 0 1 3.73-3.727h3.93a3.727 3.727 0 0 1 3.731 3.727v58.578a3.727 3.727 0 0 1-3.73 3.726m0 0"/></clipPath><clipPath id="c"><path d="M.172 43.91h11.375v43.953H.172Zm0 0"/></clipPath><clipPath id="d"><path d="M7.82 87.863H3.887A3.726 3.726 0 0 1 .16 84.137v-36.48a3.727 3.727 0 0 1 3.727-3.731H7.82a3.727 3.727 0 0 1 3.727 3.73v36.48a3.726 3.726 0 0 1-3.727 3.727m0 0"/></clipPath><clipPath id="e"><path d="M70.34 10.273h11.387V87.86H70.34Zm0 0"/></clipPath><clipPath id="f"><path d="M78 87.86h-3.934a3.727 3.727 0 0 1-3.726-3.731v-70.11a3.73 3.73 0 0 1 3.726-3.73H78a3.73 3.73 0 0 1 3.727 3.73v70.11A3.727 3.727 0 0 1 78 87.859m0 0"/></clipPath><clipPath id="g"><path d="M23.55 21.793h11.391v66.062h-11.39Zm0 0"/></clipPath><clipPath id="h"><path d="M31.21 87.855h-3.929a3.73 3.73 0 0 1-3.73-3.726V25.55a3.73 3.73 0 0 1 3.73-3.727h3.93a3.73 3.73 0 0 1 3.73 3.727v58.578a3.73 3.73 0 0 1-3.73 3.726m0 0"/></clipPath><clipPath id="i"><path d="M46.945 0h11.39v87.852h-11.39Zm0 0"/></clipPath><clipPath id="j"><path d="M54.605 87.852h-3.93a3.73 3.73 0 0 1-3.73-3.73V3.702a3.73 3.73 0 0 1 3.73-3.73h3.93a3.733 3.733 0 0 1 3.73 3.73V84.12a3.733 3.733 0 0 1-3.73 3.73m0 0"/></clipPath></defs><g clip-path="url(#a)"><g clip-path="url(#b)"><path fill="#e41d5a" d="M105.121 87.855h-11.39v-66.02h11.39Zm0 0"/></g></g><g clip-path="url(#c)"><g clip-path="url(#d)"><path fill="#19b5d0" d="M11.547 87.863H.16V43.91h11.387Zm0 0"/></g></g><g clip-path="url(#e)"><g clip-path="url(#f)"><path fill="#ec7031" d="M81.727 87.86H70.34V10.272h11.387Zm0 0"/></g></g><g clip-path="url(#g)"><g clip-path="url(#h)"><path fill="#00ac8a" d="M34.941 87.855h-11.39v-66.02h11.39Zm0 0"/></g></g><g clip-path="url(#i)"><g clip-path="url(#j)"><path fill="#f2bd3c" d="M58.336 87.852h-11.39V-.012h11.39Zm0 0"/></g></g></svg>