<svg xmlns="http://www.w3.org/2000/svg" xml:space="preserve" viewBox="50.52 22.62 133.27 133.05"><path d="M53.017 22.62a2.5 2.5 0 0 0-2.5 2.5v128.048a2.5 2.5 0 0 0 2.5 2.5h96.588a2.5 2.5 0 0 0 2.5-2.5V130.08h-5v20.587H55.518V27.619h91.587v31.844h5V25.119a2.5 2.5 0 0 0-2.5-2.5z" style="color:#000;fill:#ed4f5d;stroke-linejoin:round;-inkscape-stroke:none"/><path d="M124.553-150.681h27.194v2.159h-27.194z" style="fill:none;stroke:#ed4f5d;stroke-width:2.8361;stroke-linejoin:round;stroke-miterlimit:7;stroke-dasharray:none;stroke-opacity:1" transform="rotate(90)"/><path d="M66.756 40.082h69.113v19.28H66.756z" style="opacity:1;fill:none;stroke:#ed4f5d;stroke-width:3;stroke-linejoin:round;stroke-dasharray:none;stroke-opacity:1"/><path d="M66.754 111.184h58.587v.777H66.754z" style="opacity:1;fill:none;stroke:#ed4f5d;stroke-width:2.49777;stroke-linejoin:round;stroke-dasharray:none;stroke-opacity:1"/><path d="M66.754 99.021h58.587v.777H66.754zm0-12.163h58.587v.777H66.754z" style="fill:none;stroke:#ed4f5d;stroke-width:2.49777;stroke-linejoin:round;stroke-dasharray:none;stroke-opacity:1"/><path d="M66.491 74.431H88.23v1.304H66.491z" style="fill:none;stroke:#ed4f5d;stroke-width:1.97088;stroke-linejoin:round;stroke-dasharray:none;stroke-opacity:1"/><path d="M90.044 140.976c5.392 0 9.524-3.65 13.175-6.872 2.852-2.518 5.54-4.896 8.213-4.896.674 0 .985.141 1.052.26.296.548-.97 2.518-1.585 3.466-.244.377-.481.74-.666 1.066-1.481 2.503-1.83 4.362-1.045 5.525.615.91 1.808 1.237 3.54.97 5.873-.904 12.183-8.124 12.45-8.428a.74.74 0 1 0-1.118-.97c-.06.074-6.214 7.117-11.554 7.94-1.088.162-1.83.044-2.088-.334-.319-.474-.2-1.763 1.088-3.94.186-.311.408-.652.637-1.015 1.111-1.71 2.363-3.65 1.644-4.976-.37-.682-1.162-1.03-2.347-1.03-3.237 0-6.132 2.563-9.198 5.266-3.622 3.2-7.362 6.502-12.19 6.502.225-.434-.496 1.458-.008 1.467z" style="fill:#ed4f5d;fill-opacity:1;stroke-width:.740585"/><path d="M38.518-150.597h33.16v1.989h-33.16z" style="fill:none;stroke:#ed4f5d;stroke-width:3.006;stroke-linejoin:round;stroke-miterlimit:7;stroke-dasharray:none;stroke-opacity:1" transform="rotate(90)"/><g transform="rotate(-53.774 21.145 75.954)"><rect width=".605" height="9.572" x="58.656" y="187.758" ry=".624" style="fill:#ed4f5d;fill-opacity:1;stroke:#ed4f5d;stroke-width:1.47349;stroke-linecap:butt;stroke-linejoin:miter;stroke-miterlimit:0;stroke-dasharray:none;stroke-opacity:1"/><rect width=".605" height="9.572" x="118.466" y="187.446" ry=".624" style="fill:#ed4f5d;fill-opacity:1;stroke:#ed4f5d;stroke-width:1.47349;stroke-linecap:butt;stroke-linejoin:miter;stroke-miterlimit:0;stroke-dasharray:none;stroke-opacity:1"/><path d="M51.6 186.33h71.607c2.827 0 3.216 2.646 3.216 5.933s-.389 5.932-3.216 5.932H51.6s-12.614-5.43-12.614-5.932c0-.45 12.614-5.933 12.614-5.933z" style="fill:none;stroke:#ed4f5d;stroke-width:3.62731;stroke-linejoin:round"/></g></svg>