<svg xmlns="http://www.w3.org/2000/svg" viewBox="0 0 24 24"><path d="M19.3 3.84A17.6 17.6 0 0 0 12 2.25c-2.53 0-4.99.54-7.3 1.6a4.2 4.2 0 0 0-2.45 3.82v1.45c0 .9.74 1.63 1.65 1.63h2.7c.91 0 1.65-.73 1.65-1.63V7.97c0-.05.03-.1.08-.11 2.36-.81 4.97-.81 7.33 0 .05.02.08.06.08.11v1.15c0 .9.74 1.63 1.65 1.63h2.7c.91 0 1.65-.73 1.65-1.63V7.66c0-1.64-.96-3.14-2.45-3.83Zm.95 5.28c0 .07-.07.13-.15.13h-2.7c-.08 0-.15-.06-.15-.13V7.97c0-.69-.44-1.31-1.09-1.53-1.34-.46-2.74-.7-4.16-.7s-2.82.23-4.16.7c-.65.23-1.09.84-1.09 1.53v1.15c0 .07-.07.13-.15.13H3.9c-.08 0-.15-.06-.15-.13V7.67c0-1.06.62-2.02 1.58-2.46C7.45 4.24 9.69 3.75 12 3.75c1.59 0 4.05.25 6.68 1.46.96.44 1.57 1.4 1.57 2.46v1.46Z"/><path d="M19.16 13.85c-.16-1.37-1.28-2.4-2.6-2.4h-.29c-.42 0-.8-.26-1-.67-.44-.94-1.35-1.53-2.35-1.53h-1.83c-1.01 0-1.91.59-2.35 1.53-.19.41-.58.67-1 .67h-.29c-1.32 0-2.44 1.03-2.6 2.4l-.57 4.82c-.09.8.15 1.61.68 2.2.49.56 1.19.87 1.92.87h10.25c.73 0 1.43-.32 1.92-.87.53-.59.78-1.4.68-2.2zm-1.24 6.02c-.21.24-.5.37-.8.37H6.87c-.3 0-.59-.13-.8-.37-.24-.27-.36-.65-.31-1.03l.57-4.82c.07-.62.55-1.08 1.11-1.08h.29c1.01 0 1.91-.59 2.35-1.53.19-.41.58-.67 1-.67h1.83c.42 0 .8.26 1 .67.44.94 1.35 1.53 2.35 1.53h.29c.56 0 1.04.46 1.11 1.08l.57 4.82c.04.38-.07.75-.31 1.03"/><path d="M12 13.25c-1.52 0-2.75 1.23-2.75 2.75s1.23 2.75 2.75 2.75 2.75-1.23 2.75-2.75-1.23-2.75-2.75-2.75m0 4a1.25 1.25 0 1 1 0-2.5 1.25 1.25 0 0 1 0 2.5"/></svg>