<svg viewBox="17.42 148.37 215.25 28.35" xmlns="http://www.w3.org/2000/svg"><defs><clipPath id="a"><path d="M93.73 21.793h11.391v66.062h-11.39Zm0 0"/></clipPath><clipPath id="b"><path d="M101.39 87.855h-3.93a3.73 3.73 0 0 1-3.73-3.726V25.55a3.73 3.73 0 0 1 3.73-3.727h3.93a3.727 3.727 0 0 1 3.731 3.727v58.578a3.727 3.727 0 0 1-3.73 3.726zm0 0"/></clipPath><clipPath id="c"><path d="M.172 43.91h11.375v43.953H.172zm0 0"/></clipPath><clipPath id="d"><path d="M7.82 87.863H3.887A3.726 3.726 0 0 1 .16 84.137v-36.48a3.727 3.727 0 0 1 3.727-3.731H7.82a3.727 3.727 0 0 1 3.727 3.73v36.48a3.726 3.726 0 0 1-3.727 3.727zm0 0"/></clipPath><clipPath id="e"><path d="M70.34 10.273h11.387V87.86H70.34Zm0 0"/></clipPath><clipPath id="f"><path d="M78 87.86h-3.934a3.727 3.727 0 0 1-3.726-3.731v-70.11a3.73 3.73 0 0 1 3.726-3.73H78a3.73 3.73 0 0 1 3.727 3.73v70.11A3.727 3.727 0 0 1 78 87.859zm0 0"/></clipPath><clipPath id="g"><path d="M23.55 21.793h11.391v66.062h-11.39Zm0 0"/></clipPath><clipPath id="h"><path d="M31.21 87.855h-3.929a3.73 3.73 0 0 1-3.73-3.726V25.55a3.73 3.73 0 0 1 3.73-3.727h3.93a3.73 3.73 0 0 1 3.73 3.727v58.578a3.73 3.73 0 0 1-3.73 3.726zm0 0"/></clipPath><clipPath id="i"><path d="M46.945 0h11.39v87.852h-11.39Zm0 0"/></clipPath><clipPath id="j"><path d="M54.605 87.852h-3.93a3.73 3.73 0 0 1-3.73-3.73V3.702a3.73 3.73 0 0 1 3.73-3.73h3.93a3.733 3.733 0 0 1 3.73 3.73v80.418a3.733 3.733 0 0 1-3.73 3.73zm0 0"/></clipPath></defs><g style="fill:#1e3456;fill-opacity:1"><text xml:space="preserve" style="font-style:normal;font-variant:normal;font-weight:800;font-stretch:normal;font-size:16.9333px;font-family:Montserrat;-inkscape-font-specification:'Montserrat Ultra-Bold';fill:#1e3456;fill-opacity:1;stroke-width:.264583" x="56.485" y="123.296" transform="matrix(1.3518 0 0 1.3518 -32.512 3.87)"><tspan style="font-style:normal;font-variant:normal;font-weight:600;font-stretch:normal;font-size:16.9333px;font-family:Montserrat;-inkscape-font-specification:'Montserrat Semi-Bold';fill:#1e3456;fill-opacity:1;stroke-width:.264583" x="56.485" y="123.296">BRENNA</tspan></text><text xml:space="preserve" style="font-style:normal;font-variant:normal;font-weight:800;font-stretch:normal;font-size:16.9333px;font-family:Montserrat;-inkscape-font-specification:'Montserrat Ultra-Bold';fill:#1e3456;fill-opacity:1;stroke-width:.264583" x="139.716" y="123.39" transform="matrix(1.3518 0 0 1.3518 -32.512 3.87)"><tspan style="font-style:normal;font-variant:normal;font-weight:600;font-stretch:normal;font-size:16.9333px;font-family:Montserrat;-inkscape-font-specification:'Montserrat Semi-Bold';fill:#1e3456;fill-opacity:1;stroke-width:.264583" x="139.716" y="123.39">S. ORT</tspan></text></g><g clip-path="url(#a)" style="fill:#e41d5a;fill-opacity:1" transform="matrix(.20068 0 0 .21502 17.385 151.63)"><g clip-path="url(#b)" style="fill:#e41d5a;fill-opacity:1"><path d="M105.121 87.855h-11.39v-66.02h11.39zm0 0" style="fill:#e41d5a;fill-opacity:1"/></g></g><g clip-path="url(#c)" style="fill:#19b5d0;fill-opacity:1" transform="matrix(.20068 0 0 .21502 17.385 151.63)"><g clip-path="url(#d)" style="fill:#19b5d0;fill-opacity:1"><path d="M11.547 87.863H.16V43.91h11.387zm0 0" style="fill:#19b5d0;fill-opacity:1"/></g></g><g clip-path="url(#e)" style="fill:#ec7031;fill-opacity:1" transform="matrix(.20068 0 0 .21502 17.385 151.63)"><g clip-path="url(#f)" style="fill:#ec7031;fill-opacity:1"><path d="M81.727 87.86H70.34V10.272h11.387zm0 0" style="fill:#ec7031;fill-opacity:1"/></g></g><g clip-path="url(#g)" style="fill:#00ac8a;fill-opacity:1" transform="matrix(.20068 0 0 .21502 17.385 151.63)"><g clip-path="url(#h)" style="fill:#00ac8a;fill-opacity:1"><path d="M34.941 87.855h-11.39v-66.02h11.39zm0 0" style="fill:#00ac8a;fill-opacity:1"/></g></g><g clip-path="url(#i)" style="fill:#f2bd3c;fill-opacity:1" transform="matrix(.20068 0 0 .21502 17.385 151.63)"><g clip-path="url(#j)" style="fill:#f2bd3c;fill-opacity:1"><path d="M58.336 87.852h-11.39V-.012h11.39zm0 0" style="fill:#f2bd3c;fill-opacity:1"/></g></g></svg>