<svg xmlns="http://www.w3.org/2000/svg" xmlns:xlink="http://www.w3.org/1999/xlink" zoomAndPan="magnify" preserveAspectRatio="xMidYMid meet" version="1.0" viewBox="0.95 14.95 310.19 59.07"><defs><g/><clipPath id="fe1cd82edf"><path d="M 40.441406 24.175781 L 45.246094 24.175781 L 45.246094 52.050781 L 40.441406 52.050781 Z M 40.441406 24.175781 " clip-rule="nonzero"/></clipPath><clipPath id="659883db8f"><path d="M 42.84375 52.050781 C 42.207031 52.050781 41.59375 51.800781 41.144531 51.347656 C 40.695312 50.898438 40.441406 50.285156 40.441406 49.648438 L 40.441406 26.589844 C 40.441406 25.953125 40.695312 25.339844 41.144531 24.890625 C 41.59375 24.441406 42.207031 24.1875 42.84375 24.1875 C 43.480469 24.1875 44.09375 24.441406 44.542969 24.890625 C 44.992188 25.339844 45.246094 25.953125 45.246094 26.589844 L 45.246094 49.648438 C 45.246094 50.285156 44.992188 50.898438 44.542969 51.347656 C 44.09375 51.800781 43.480469 52.050781 42.84375 52.050781 Z M 42.84375 52.050781 " clip-rule="nonzero"/></clipPath><clipPath id="21dbe39a0a"><path d="M 0.960938 33.507812 L 5.757812 33.507812 L 5.757812 52.054688 L 0.960938 52.054688 Z M 0.960938 33.507812 " clip-rule="nonzero"/></clipPath><clipPath id="08aeb03aa9"><path d="M 3.355469 52.054688 C 2.71875 52.054688 2.109375 51.800781 1.65625 51.351562 C 1.207031 50.902344 0.953125 50.289062 0.953125 49.652344 L 0.953125 35.917969 C 0.953125 35.28125 1.207031 34.667969 1.65625 34.21875 C 2.109375 33.765625 2.71875 33.515625 3.355469 33.515625 C 3.992188 33.515625 4.605469 33.765625 5.054688 34.21875 C 5.507812 34.667969 5.757812 35.28125 5.757812 35.917969 L 5.757812 49.652344 C 5.757812 50.289062 5.507812 50.902344 5.054688 51.351562 C 4.605469 51.800781 3.992188 52.054688 3.355469 52.054688 Z M 3.355469 52.054688 " clip-rule="nonzero"/></clipPath><clipPath id="c44494affb"><path d="M 30.570312 19.3125 L 35.375 19.3125 L 35.375 52.054688 L 30.570312 52.054688 Z M 30.570312 19.3125 " clip-rule="nonzero"/></clipPath><clipPath id="274d9b2580"><path d="M 32.972656 52.054688 C 32.335938 52.054688 31.722656 51.800781 31.273438 51.351562 C 30.820312 50.898438 30.570312 50.289062 30.570312 49.652344 L 30.570312 21.722656 C 30.570312 21.085938 30.820312 20.472656 31.273438 20.023438 C 31.722656 19.574219 32.335938 19.320312 32.972656 19.320312 C 33.609375 19.320312 34.21875 19.574219 34.671875 20.023438 C 35.121094 20.472656 35.375 21.085938 35.375 21.722656 L 35.375 49.652344 C 35.375 50.289062 35.121094 50.898438 34.671875 51.351562 C 34.21875 51.800781 33.609375 52.054688 32.972656 52.054688 Z M 32.972656 52.054688 " clip-rule="nonzero"/></clipPath><clipPath id="2101ae8ff1"><path d="M 10.824219 24.175781 L 15.632812 24.175781 L 15.632812 52.050781 L 10.824219 52.050781 Z M 10.824219 24.175781 " clip-rule="nonzero"/></clipPath><clipPath id="e0cd635a64"><path d="M 13.226562 52.050781 C 12.589844 52.050781 11.980469 51.800781 11.527344 51.347656 C 11.078125 50.898438 10.824219 50.285156 10.824219 49.648438 L 10.824219 26.589844 C 10.824219 25.953125 11.078125 25.339844 11.527344 24.890625 C 11.980469 24.441406 12.589844 24.1875 13.226562 24.1875 C 13.867188 24.1875 14.476562 24.441406 14.925781 24.890625 C 15.378906 25.339844 15.632812 25.953125 15.632812 26.589844 L 15.632812 49.648438 C 15.632812 50.285156 15.378906 50.898438 14.925781 51.347656 C 14.476562 51.800781 13.867188 52.050781 13.226562 52.050781 Z M 13.226562 52.050781 " clip-rule="nonzero"/></clipPath><clipPath id="e54cedbd00"><path d="M 20.695312 14.953125 L 25.503906 14.953125 L 25.503906 52.050781 L 20.695312 52.050781 Z M 20.695312 14.953125 " clip-rule="nonzero"/></clipPath><clipPath id="ea7e187e35"><path d="M 23.101562 52.050781 C 22.460938 52.050781 21.851562 51.796875 21.402344 51.347656 C 20.949219 50.894531 20.695312 50.285156 20.695312 49.648438 L 20.695312 17.371094 C 20.695312 16.734375 20.949219 16.121094 21.402344 15.671875 C 21.851562 15.21875 22.460938 14.96875 23.101562 14.96875 C 23.738281 14.96875 24.347656 15.21875 24.800781 15.671875 C 25.25 16.121094 25.503906 16.734375 25.503906 17.371094 L 25.503906 49.648438 C 25.503906 50.285156 25.25 50.894531 24.800781 51.347656 C 24.347656 51.796875 23.738281 52.050781 23.101562 52.050781 Z M 23.101562 52.050781 " clip-rule="nonzero"/></clipPath></defs><g fill="#4a4546" fill-opacity="1"><g transform="translate(117.431129, 73.816037)"><g><path d="M 1.265625 -10.09375 L 4.359375 -5.21875 L 7.453125 -10.09375 L 8.4375 -10.09375 L 4.734375 -4.390625 L 4.734375 0 L 3.828125 0 L 3.828125 -4.359375 L 0.109375 -10.09375 Z M 1.265625 -10.09375 "/></g></g></g><g fill="#4a4546" fill-opacity="1"><g transform="translate(126.532883, 73.816037)"><g><path d="M 9.9375 -5.046875 C 9.9375 -3.441406 9.539062 -2.164062 8.75 -1.21875 C 7.957031 -0.269531 6.851562 0.203125 5.4375 0.203125 C 4.019531 0.203125 2.921875 -0.265625 2.140625 -1.203125 C 1.359375 -2.148438 0.957031 -3.429688 0.9375 -5.046875 C 0.9375 -6.660156 1.332031 -7.9375 2.125 -8.875 C 2.914062 -9.820312 4.019531 -10.300781 5.4375 -10.3125 C 6.851562 -10.3125 7.953125 -9.832031 8.734375 -8.875 C 9.523438 -7.925781 9.925781 -6.648438 9.9375 -5.046875 Z M 5.4375 -0.625 C 6.539062 -0.625 7.40625 -1.035156 8.03125 -1.859375 C 8.65625 -2.679688 8.96875 -3.742188 8.96875 -5.046875 C 8.96875 -6.390625 8.648438 -7.460938 8.015625 -8.265625 C 7.390625 -9.066406 6.523438 -9.46875 5.421875 -9.46875 C 4.347656 -9.46875 3.5 -9.066406 2.875 -8.265625 C 2.25 -7.460938 1.929688 -6.390625 1.921875 -5.046875 C 1.921875 -3.765625 2.222656 -2.710938 2.828125 -1.890625 C 3.441406 -1.066406 4.3125 -0.644531 5.4375 -0.625 Z M 5.4375 -0.625 "/></g></g></g><g fill="#4a4546" fill-opacity="1"><g transform="translate(137.969415, 73.816037)"><g><path d="M 2.265625 -10.09375 L 2.265625 -3.671875 C 2.265625 -2.765625 2.515625 -2.03125 3.015625 -1.46875 C 3.523438 -0.90625 4.203125 -0.625 5.046875 -0.625 C 5.910156 -0.625 6.585938 -0.898438 7.078125 -1.453125 C 7.578125 -2.015625 7.828125 -2.769531 7.828125 -3.71875 L 7.828125 -10.09375 L 8.734375 -10.09375 L 8.734375 -3.65625 C 8.734375 -2.476562 8.410156 -1.539062 7.765625 -0.84375 C 7.128906 -0.144531 6.222656 0.203125 5.046875 0.203125 C 3.878906 0.203125 2.972656 -0.140625 2.328125 -0.828125 C 1.679688 -1.515625 1.359375 -2.453125 1.359375 -3.640625 L 1.359375 -10.09375 Z M 2.265625 -10.09375 "/></g></g></g><g fill="#4a4546" fill-opacity="1"><g transform="translate(148.623022, 73.816037)"><g><path d="M 4.953125 -10.09375 C 5.953125 -10.09375 6.734375 -9.867188 7.296875 -9.421875 C 7.867188 -8.984375 8.15625 -8.332031 8.15625 -7.46875 C 8.15625 -6.9375 7.984375 -6.476562 7.640625 -6.09375 C 7.296875 -5.71875 6.816406 -5.445312 6.203125 -5.28125 L 6.203125 -5.265625 C 6.785156 -5.171875 7.210938 -4.921875 7.484375 -4.515625 C 7.753906 -4.117188 7.914062 -3.347656 7.96875 -2.203125 C 8.03125 -1.054688 8.1875 -0.320312 8.4375 0 L 7.390625 0 C 7.210938 -0.445312 7.085938 -1.191406 7.015625 -2.234375 C 6.941406 -3.285156 6.785156 -3.976562 6.546875 -4.3125 C 6.316406 -4.644531 5.785156 -4.8125 4.953125 -4.8125 L 2.34375 -4.8125 L 2.34375 0 L 1.4375 0 L 1.4375 -10.09375 Z M 4.46875 -5.65625 C 5.4375 -5.65625 6.128906 -5.796875 6.546875 -6.078125 C 6.960938 -6.367188 7.171875 -6.828125 7.171875 -7.453125 C 7.171875 -8.078125 6.984375 -8.53125 6.609375 -8.8125 C 6.242188 -9.101562 5.703125 -9.25 4.984375 -9.25 L 2.34375 -9.25 L 2.34375 -5.65625 Z M 4.46875 -5.65625 "/></g></g></g><g fill="#4a4546" fill-opacity="1"><g transform="translate(158.5077, 73.816037)"><g/></g></g><g fill="#4a4546" fill-opacity="1"><g transform="translate(162.953884, 73.816037)"><g><path d="M 2.3125 -10.09375 L 2.3125 -0.84375 L 7.390625 -0.84375 L 7.390625 0 L 1.40625 0 L 1.40625 -10.09375 Z M 2.3125 -10.09375 "/></g></g></g><g fill="#4a4546" fill-opacity="1"><g transform="translate(171.286697, 73.816037)"><g><path d="M 9.9375 -5.046875 C 9.9375 -3.441406 9.539062 -2.164062 8.75 -1.21875 C 7.957031 -0.269531 6.851562 0.203125 5.4375 0.203125 C 4.019531 0.203125 2.921875 -0.265625 2.140625 -1.203125 C 1.359375 -2.148438 0.957031 -3.429688 0.9375 -5.046875 C 0.9375 -6.660156 1.332031 -7.9375 2.125 -8.875 C 2.914062 -9.820312 4.019531 -10.300781 5.4375 -10.3125 C 6.851562 -10.3125 7.953125 -9.832031 8.734375 -8.875 C 9.523438 -7.925781 9.925781 -6.648438 9.9375 -5.046875 Z M 5.4375 -0.625 C 6.539062 -0.625 7.40625 -1.035156 8.03125 -1.859375 C 8.65625 -2.679688 8.96875 -3.742188 8.96875 -5.046875 C 8.96875 -6.390625 8.648438 -7.460938 8.015625 -8.265625 C 7.390625 -9.066406 6.523438 -9.46875 5.421875 -9.46875 C 4.347656 -9.46875 3.5 -9.066406 2.875 -8.265625 C 2.25 -7.460938 1.929688 -6.390625 1.921875 -5.046875 C 1.921875 -3.765625 2.222656 -2.710938 2.828125 -1.890625 C 3.441406 -1.066406 4.3125 -0.644531 5.4375 -0.625 Z M 5.4375 -0.625 "/></g></g></g><g fill="#4a4546" fill-opacity="1"><g transform="translate(182.723228, 73.816037)"><g><path d="M 7.578125 -7.734375 C 7.492188 -8.296875 7.238281 -8.722656 6.8125 -9.015625 C 6.382812 -9.316406 5.847656 -9.46875 5.203125 -9.46875 C 4.117188 -9.46875 3.285156 -9.066406 2.703125 -8.265625 C 2.117188 -7.472656 1.828125 -6.398438 1.828125 -5.046875 C 1.828125 -3.691406 2.117188 -2.617188 2.703125 -1.828125 C 3.285156 -1.046875 4.117188 -0.644531 5.203125 -0.625 C 5.859375 -0.625 6.410156 -0.789062 6.859375 -1.125 C 7.304688 -1.46875 7.582031 -1.910156 7.6875 -2.453125 L 8.671875 -2.453125 C 8.546875 -1.671875 8.15625 -1.035156 7.5 -0.546875 C 6.851562 -0.0546875 6.085938 0.191406 5.203125 0.203125 C 3.835938 0.203125 2.773438 -0.265625 2.015625 -1.203125 C 1.253906 -2.140625 0.867188 -3.421875 0.859375 -5.046875 C 0.859375 -6.628906 1.234375 -7.894531 1.984375 -8.84375 C 2.742188 -9.800781 3.816406 -10.289062 5.203125 -10.3125 C 6.171875 -10.3125 6.953125 -10.085938 7.546875 -9.640625 C 8.140625 -9.203125 8.476562 -8.566406 8.5625 -7.734375 Z M 7.578125 -7.734375 "/></g></g></g><g fill="#4a4546" fill-opacity="1"><g transform="translate(192.607907, 73.816037)"><g><path d="M 5.1875 -10.09375 L 9.21875 0 L 8.21875 0 L 7.140625 -2.734375 L 2.125 -2.734375 L 1.0625 0 L 0.125 0 L 4.125 -10.09375 Z M 2.421875 -3.5625 L 6.828125 -3.5625 L 4.640625 -9.25 Z M 2.421875 -3.5625 "/></g></g></g><g fill="#4a4546" fill-opacity="1"><g transform="translate(202.492585, 73.816037)"><g><path d="M 2.3125 -10.09375 L 2.3125 -0.84375 L 7.390625 -0.84375 L 7.390625 0 L 1.40625 0 L 1.40625 -10.09375 Z M 2.3125 -10.09375 "/></g></g></g><g fill="#4a4546" fill-opacity="1"><g transform="translate(210.825398, 73.816037)"><g/></g></g><g fill="#4a4546" fill-opacity="1"><g transform="translate(215.271588, 73.816037)"><g><path d="M 4.828125 -10.09375 C 5.742188 -10.09375 6.472656 -9.863281 7.015625 -9.40625 C 7.554688 -8.945312 7.828125 -8.332031 7.828125 -7.5625 C 7.828125 -7 7.648438 -6.507812 7.296875 -6.09375 C 6.941406 -5.6875 6.492188 -5.414062 5.953125 -5.28125 L 5.953125 -5.265625 C 6.679688 -5.128906 7.242188 -4.835938 7.640625 -4.390625 C 8.046875 -3.953125 8.25 -3.390625 8.25 -2.703125 C 8.25 -1.847656 7.972656 -1.179688 7.421875 -0.703125 C 6.867188 -0.234375 6.15625 0 5.28125 0 L 1.40625 0 L 1.40625 -10.09375 Z M 4.46875 -5.65625 C 5.207031 -5.65625 5.789062 -5.8125 6.21875 -6.125 C 6.644531 -6.4375 6.859375 -6.890625 6.859375 -7.484375 C 6.859375 -8.097656 6.65625 -8.546875 6.25 -8.828125 C 5.84375 -9.109375 5.234375 -9.25 4.421875 -9.25 L 2.3125 -9.25 L 2.3125 -5.65625 Z M 4.734375 -0.84375 C 5.617188 -0.84375 6.257812 -1 6.65625 -1.3125 C 7.0625 -1.632812 7.265625 -2.140625 7.265625 -2.828125 C 7.265625 -3.503906 7.035156 -4.003906 6.578125 -4.328125 C 6.117188 -4.648438 5.304688 -4.8125 4.140625 -4.8125 L 2.3125 -4.8125 L 2.3125 -0.84375 Z M 4.734375 -0.84375 "/></g></g></g><g fill="#4a4546" fill-opacity="1"><g transform="translate(225.15626, 73.816037)"><g><path d="M 9.9375 -5.046875 C 9.9375 -3.441406 9.539062 -2.164062 8.75 -1.21875 C 7.957031 -0.269531 6.851562 0.203125 5.4375 0.203125 C 4.019531 0.203125 2.921875 -0.265625 2.140625 -1.203125 C 1.359375 -2.148438 0.957031 -3.429688 0.9375 -5.046875 C 0.9375 -6.660156 1.332031 -7.9375 2.125 -8.875 C 2.914062 -9.820312 4.019531 -10.300781 5.4375 -10.3125 C 6.851562 -10.3125 7.953125 -9.832031 8.734375 -8.875 C 9.523438 -7.925781 9.925781 -6.648438 9.9375 -5.046875 Z M 5.4375 -0.625 C 6.539062 -0.625 7.40625 -1.035156 8.03125 -1.859375 C 8.65625 -2.679688 8.96875 -3.742188 8.96875 -5.046875 C 8.96875 -6.390625 8.648438 -7.460938 8.015625 -8.265625 C 7.390625 -9.066406 6.523438 -9.46875 5.421875 -9.46875 C 4.347656 -9.46875 3.5 -9.066406 2.875 -8.265625 C 2.25 -7.460938 1.929688 -6.390625 1.921875 -5.046875 C 1.921875 -3.765625 2.222656 -2.710938 2.828125 -1.890625 C 3.441406 -1.066406 4.3125 -0.644531 5.4375 -0.625 Z M 5.4375 -0.625 "/></g></g></g><g fill="#4a4546" fill-opacity="1"><g transform="translate(236.592797, 73.816037)"><g><path d="M 9.9375 -5.046875 C 9.9375 -3.441406 9.539062 -2.164062 8.75 -1.21875 C 7.957031 -0.269531 6.851562 0.203125 5.4375 0.203125 C 4.019531 0.203125 2.921875 -0.265625 2.140625 -1.203125 C 1.359375 -2.148438 0.957031 -3.429688 0.9375 -5.046875 C 0.9375 -6.660156 1.332031 -7.9375 2.125 -8.875 C 2.914062 -9.820312 4.019531 -10.300781 5.4375 -10.3125 C 6.851562 -10.3125 7.953125 -9.832031 8.734375 -8.875 C 9.523438 -7.925781 9.925781 -6.648438 9.9375 -5.046875 Z M 5.4375 -0.625 C 6.539062 -0.625 7.40625 -1.035156 8.03125 -1.859375 C 8.65625 -2.679688 8.96875 -3.742188 8.96875 -5.046875 C 8.96875 -6.390625 8.648438 -7.460938 8.015625 -8.265625 C 7.390625 -9.066406 6.523438 -9.46875 5.421875 -9.46875 C 4.347656 -9.46875 3.5 -9.066406 2.875 -8.265625 C 2.25 -7.460938 1.929688 -6.390625 1.921875 -5.046875 C 1.921875 -3.765625 2.222656 -2.710938 2.828125 -1.890625 C 3.441406 -1.066406 4.3125 -0.644531 5.4375 -0.625 Z M 5.4375 -0.625 "/></g></g></g><g fill="#4a4546" fill-opacity="1"><g transform="translate(248.029334, 73.816037)"><g><path d="M 2.375 -10.09375 L 2.390625 -5.65625 L 6.90625 -10.09375 L 8.0625 -10.09375 L 3.390625 -5.53125 L 8.46875 0 L 7.234375 0 L 2.390625 -5.265625 L 2.375 0 L 1.484375 0 L 1.484375 -10.09375 Z M 2.375 -10.09375 "/></g></g></g><g fill="#4a4546" fill-opacity="1"><g transform="translate(257.131082, 73.816037)"><g><path d="M 2.375 -10.09375 L 2.390625 -5.65625 L 6.90625 -10.09375 L 8.0625 -10.09375 L 3.390625 -5.53125 L 8.46875 0 L 7.234375 0 L 2.390625 -5.265625 L 2.375 0 L 1.484375 0 L 1.484375 -10.09375 Z M 2.375 -10.09375 "/></g></g></g><g fill="#4a4546" fill-opacity="1"><g transform="translate(266.232831, 73.816037)"><g><path d="M 7.421875 -10.09375 L 7.421875 -9.25 L 2.328125 -9.25 L 2.328125 -5.640625 L 7.234375 -5.640625 L 7.234375 -4.796875 L 2.328125 -4.796875 L 2.328125 -0.84375 L 7.640625 -0.84375 L 7.640625 0 L 1.421875 0 L 1.421875 -10.09375 Z M 7.421875 -10.09375 "/></g></g></g><g fill="#4a4546" fill-opacity="1"><g transform="translate(275.33458, 73.816037)"><g><path d="M 7.421875 -10.09375 L 7.421875 -9.25 L 2.328125 -9.25 L 2.328125 -5.640625 L 7.234375 -5.640625 L 7.234375 -4.796875 L 2.328125 -4.796875 L 2.328125 -0.84375 L 7.640625 -0.84375 L 7.640625 0 L 1.421875 0 L 1.421875 -10.09375 Z M 7.421875 -10.09375 "/></g></g></g><g fill="#4a4546" fill-opacity="1"><g transform="translate(284.436328, 73.816037)"><g><path d="M 4.203125 -10.09375 C 5.472656 -10.09375 6.429688 -9.847656 7.078125 -9.359375 C 7.734375 -8.878906 8.0625 -8.175781 8.0625 -7.25 C 8.0625 -6.289062 7.726562 -5.570312 7.0625 -5.09375 C 6.394531 -4.625 5.429688 -4.390625 4.171875 -4.390625 L 2.3125 -4.390625 L 2.3125 0 L 1.40625 0 L 1.40625 -10.09375 Z M 4.59375 -5.234375 C 5.394531 -5.234375 6.007812 -5.398438 6.4375 -5.734375 C 6.863281 -6.066406 7.078125 -6.570312 7.078125 -7.25 C 7.078125 -8.582031 6.21875 -9.25 4.5 -9.25 L 2.3125 -9.25 L 2.3125 -5.234375 Z M 4.59375 -5.234375 "/></g></g></g><g fill="#4a4546" fill-opacity="1"><g transform="translate(293.538077, 73.816037)"><g><path d="M 7.421875 -10.09375 L 7.421875 -9.25 L 2.328125 -9.25 L 2.328125 -5.640625 L 7.234375 -5.640625 L 7.234375 -4.796875 L 2.328125 -4.796875 L 2.328125 -0.84375 L 7.640625 -0.84375 L 7.640625 0 L 1.421875 0 L 1.421875 -10.09375 Z M 7.421875 -10.09375 "/></g></g></g><g fill="#4a4546" fill-opacity="1"><g transform="translate(302.639825, 73.816037)"><g><path d="M 4.953125 -10.09375 C 5.953125 -10.09375 6.734375 -9.867188 7.296875 -9.421875 C 7.867188 -8.984375 8.15625 -8.332031 8.15625 -7.46875 C 8.15625 -6.9375 7.984375 -6.476562 7.640625 -6.09375 C 7.296875 -5.71875 6.816406 -5.445312 6.203125 -5.28125 L 6.203125 -5.265625 C 6.785156 -5.171875 7.210938 -4.921875 7.484375 -4.515625 C 7.753906 -4.117188 7.914062 -3.347656 7.96875 -2.203125 C 8.03125 -1.054688 8.1875 -0.320312 8.4375 0 L 7.390625 0 C 7.210938 -0.445312 7.085938 -1.191406 7.015625 -2.234375 C 6.941406 -3.285156 6.785156 -3.976562 6.546875 -4.3125 C 6.316406 -4.644531 5.785156 -4.8125 4.953125 -4.8125 L 2.34375 -4.8125 L 2.34375 0 L 1.4375 0 L 1.4375 -10.09375 Z M 4.46875 -5.65625 C 5.4375 -5.65625 6.128906 -5.796875 6.546875 -6.078125 C 6.960938 -6.367188 7.171875 -6.828125 7.171875 -7.453125 C 7.171875 -8.078125 6.984375 -8.53125 6.609375 -8.8125 C 6.242188 -9.101562 5.703125 -9.25 4.984375 -9.25 L 2.34375 -9.25 L 2.34375 -5.65625 Z M 4.46875 -5.65625 "/></g></g></g><g fill="#000000" fill-opacity="1"><g transform="translate(52.46248, 51.304173)"><g><path d="M 2.484375 0 L 2.484375 -28.9375 L 15.0625 -28.9375 C 17.675781 -28.9375 19.734375 -28.28125 21.234375 -26.96875 C 22.734375 -25.664062 23.484375 -23.875 23.484375 -21.59375 C 23.484375 -19.914062 23.007812 -18.5 22.0625 -17.34375 C 21.113281 -16.1875 19.828125 -15.457031 18.203125 -15.15625 L 18.203125 -15.109375 C 20.210938 -14.835938 21.785156 -14.050781 22.921875 -12.75 C 24.066406 -11.457031 24.640625 -9.835938 24.640625 -7.890625 C 24.640625 -5.460938 23.785156 -3.539062 22.078125 -2.125 C 20.378906 -0.707031 18.039062 0 15.0625 0 Z M 4.171875 -15.859375 L 14.984375 -15.859375 C 17.097656 -15.859375 18.757812 -16.375 19.96875 -17.40625 C 21.1875 -18.4375 21.796875 -19.832031 21.796875 -21.59375 C 21.796875 -23.351562 21.1875 -24.75 19.96875 -25.78125 C 18.757812 -26.8125 17.097656 -27.328125 14.984375 -27.328125 L 4.171875 -27.328125 Z M 4.171875 -1.609375 L 14.984375 -1.609375 C 17.429688 -1.609375 19.367188 -2.175781 20.796875 -3.3125 C 22.234375 -4.457031 22.953125 -5.992188 22.953125 -7.921875 C 22.953125 -9.878906 22.234375 -11.421875 20.796875 -12.546875 C 19.367188 -13.671875 17.429688 -14.234375 14.984375 -14.234375 L 4.171875 -14.234375 Z M 4.171875 -1.609375 "/></g></g></g><g fill="#000000" fill-opacity="1"><g transform="translate(78.755503, 51.304173)"><g><path d="M 9.65625 -21.5 C 11.25 -21.5 12.601562 -20.988281 13.71875 -19.96875 C 14.832031 -18.957031 15.503906 -17.3125 15.734375 -15.03125 L 14.234375 -14.53125 C 14.046875 -16.40625 13.53125 -17.773438 12.6875 -18.640625 C 11.851562 -19.503906 10.789062 -19.9375 9.5 -19.9375 C 7.789062 -19.9375 6.398438 -19.238281 5.328125 -17.84375 C 4.253906 -16.457031 3.71875 -14.664062 3.71875 -12.46875 L 3.71875 0 L 2.0625 0 L 2.0625 -20.6875 L 3.59375 -20.6875 L 3.59375 -17.34375 L 3.625 -17.34375 C 4.207031 -18.601562 5.019531 -19.609375 6.0625 -20.359375 C 7.113281 -21.117188 8.3125 -21.5 9.65625 -21.5 Z M 9.65625 -21.5 "/></g></g></g><g fill="#000000" fill-opacity="1"><g transform="translate(95.720076, 51.304173)"><g><path d="M 12.625 0.828125 C 10.425781 0.828125 8.46875 0.347656 6.75 -0.609375 C 5.03125 -1.578125 3.679688 -2.90625 2.703125 -4.59375 C 1.722656 -6.289062 1.234375 -8.226562 1.234375 -10.40625 C 1.234375 -12.550781 1.679688 -14.460938 2.578125 -16.140625 C 3.472656 -17.816406 4.703125 -19.128906 6.265625 -20.078125 C 7.835938 -21.023438 9.628906 -21.5 11.640625 -21.5 C 13.597656 -21.5 15.296875 -21.019531 16.734375 -20.0625 C 18.179688 -19.101562 19.332031 -17.789062 20.1875 -16.125 C 21.039062 -14.457031 21.507812 -12.535156 21.59375 -10.359375 L 21.59375 -9.78125 L 2.890625 -9.78125 C 2.972656 -8.019531 3.441406 -6.457031 4.296875 -5.09375 C 5.148438 -3.738281 6.296875 -2.675781 7.734375 -1.90625 C 9.179688 -1.132812 10.828125 -0.75 12.671875 -0.75 C 14.460938 -0.75 16.117188 -1.191406 17.640625 -2.078125 C 19.171875 -2.972656 20.296875 -4.109375 21.015625 -5.484375 L 22.453125 -4.78125 C 21.898438 -3.6875 21.125 -2.710938 20.125 -1.859375 C 19.125 -1.003906 17.984375 -0.34375 16.703125 0.125 C 15.421875 0.59375 14.0625 0.828125 12.625 0.828125 Z M 2.9375 -11.359375 L 19.890625 -11.359375 C 19.785156 -13.054688 19.359375 -14.550781 18.609375 -15.84375 C 17.867188 -17.144531 16.898438 -18.148438 15.703125 -18.859375 C 14.503906 -19.578125 13.132812 -19.9375 11.59375 -19.9375 C 10 -19.9375 8.566406 -19.570312 7.296875 -18.84375 C 6.035156 -18.113281 5.023438 -17.101562 4.265625 -15.8125 C 3.515625 -14.519531 3.070312 -13.035156 2.9375 -11.359375 Z M 2.9375 -11.359375 "/></g></g></g><g fill="#000000" fill-opacity="1"><g transform="translate(119.453965, 51.304173)"><g><path d="M 12.265625 -21.5 C 14.710938 -21.5 16.625 -20.796875 18 -19.390625 C 19.375 -17.992188 20.0625 -16.054688 20.0625 -13.578125 L 20.0625 0 L 18.40625 0 L 18.40625 -13.5 C 18.40625 -15.507812 17.84375 -17.082031 16.71875 -18.21875 C 15.59375 -19.363281 14.023438 -19.9375 12.015625 -19.9375 C 9.453125 -19.9375 7.425781 -19.195312 5.9375 -17.71875 C 4.457031 -16.25 3.71875 -14.320312 3.71875 -11.9375 L 3.71875 0 L 2.0625 0 L 2.0625 -20.6875 L 3.625 -20.6875 L 3.71875 -16.765625 L 3.75 -16.765625 C 4.46875 -18.242188 5.5625 -19.398438 7.03125 -20.234375 C 8.507812 -21.078125 10.253906 -21.5 12.265625 -21.5 Z M 12.265625 -21.5 "/></g></g></g><g fill="#000000" fill-opacity="1"><g transform="translate(141.78446, 51.304173)"><g><path d="M 12.265625 -21.5 C 14.710938 -21.5 16.625 -20.796875 18 -19.390625 C 19.375 -17.992188 20.0625 -16.054688 20.0625 -13.578125 L 20.0625 0 L 18.40625 0 L 18.40625 -13.5 C 18.40625 -15.507812 17.84375 -17.082031 16.71875 -18.21875 C 15.59375 -19.363281 14.023438 -19.9375 12.015625 -19.9375 C 9.453125 -19.9375 7.425781 -19.195312 5.9375 -17.71875 C 4.457031 -16.25 3.71875 -14.320312 3.71875 -11.9375 L 3.71875 0 L 2.0625 0 L 2.0625 -20.6875 L 3.625 -20.6875 L 3.71875 -16.765625 L 3.75 -16.765625 C 4.46875 -18.242188 5.5625 -19.398438 7.03125 -20.234375 C 8.507812 -21.078125 10.253906 -21.5 12.265625 -21.5 Z M 12.265625 -21.5 "/></g></g></g><g fill="#000000" fill-opacity="1"><g transform="translate(164.114954, 51.304173)"><g><path d="M 8.5 0.828125 C 6.164062 0.828125 4.300781 0.316406 2.90625 -0.703125 C 1.519531 -1.722656 0.828125 -3.097656 0.828125 -4.828125 C 0.828125 -5.898438 1.128906 -6.882812 1.734375 -7.78125 C 2.335938 -8.675781 3.394531 -9.457031 4.90625 -10.125 C 6.425781 -10.800781 8.546875 -11.332031 11.265625 -11.71875 L 16.671875 -12.46875 C 17.421875 -12.550781 17.796875 -12.921875 17.796875 -13.578125 C 17.796875 -15.867188 17.125 -17.515625 15.78125 -18.515625 C 14.445312 -19.515625 12.765625 -20.015625 10.734375 -20.015625 C 9.304688 -20.015625 8.015625 -19.722656 6.859375 -19.140625 C 5.703125 -18.566406 4.789062 -17.804688 4.125 -16.859375 C 3.46875 -15.910156 3.140625 -14.875 3.140625 -13.75 L 1.53125 -14.328125 C 1.632812 -15.648438 2.097656 -16.859375 2.921875 -17.953125 C 3.753906 -19.054688 4.847656 -19.9375 6.203125 -20.59375 C 7.566406 -21.257812 9.078125 -21.59375 10.734375 -21.59375 C 12.410156 -21.59375 13.894531 -21.296875 15.1875 -20.703125 C 16.476562 -20.109375 17.503906 -19.21875 18.265625 -18.03125 C 19.023438 -16.851562 19.40625 -15.34375 19.40625 -13.5 L 19.40625 -2.6875 C 19.40625 -2.082031 19.554688 -1.609375 19.859375 -1.265625 C 20.160156 -0.921875 20.554688 -0.75 21.046875 -0.75 C 21.429688 -0.75 21.832031 -0.878906 22.25 -1.140625 C 22.664062 -1.398438 23.007812 -1.75 23.28125 -2.1875 L 24.359375 -1.109375 C 23.972656 -0.535156 23.460938 -0.0703125 22.828125 0.28125 C 22.191406 0.644531 21.546875 0.828125 20.890625 0.828125 C 19.953125 0.828125 19.203125 0.523438 18.640625 -0.078125 C 18.078125 -0.679688 17.78125 -1.484375 17.75 -2.484375 L 17.75 -4.90625 L 17.703125 -4.90625 C 17.015625 -3.144531 15.859375 -1.75 14.234375 -0.71875 C 12.617188 0.3125 10.707031 0.828125 8.5 0.828125 Z M 8.625 -0.75 C 10.382812 -0.75 11.945312 -1.117188 13.3125 -1.859375 C 14.675781 -2.597656 15.753906 -3.632812 16.546875 -4.96875 C 17.347656 -6.300781 17.75 -7.878906 17.75 -9.703125 L 17.75 -11.0625 L 11.390625 -10.15625 C 8.972656 -9.820312 7.125 -9.382812 5.84375 -8.84375 C 4.5625 -8.3125 3.679688 -7.707031 3.203125 -7.03125 C 2.722656 -6.363281 2.484375 -5.628906 2.484375 -4.828125 C 2.484375 -3.585938 3.039062 -2.597656 4.15625 -1.859375 C 5.269531 -1.117188 6.757812 -0.75 8.625 -0.75 Z M 8.625 -0.75 "/></g></g></g><g fill="#000000" fill-opacity="1"><g transform="translate(188.880753, 51.304173)"><g/></g></g><g fill="#000000" fill-opacity="1"><g transform="translate(200.768337, 51.304173)"><g><path d="M 12.875 1.03125 C 10.726562 1.03125 8.796875 0.625 7.078125 -0.1875 C 5.359375 -1 3.953125 -2.144531 2.859375 -3.625 C 1.773438 -5.113281 1.097656 -6.863281 0.828125 -8.875 L 2.484375 -9.25 C 2.703125 -7.507812 3.269531 -5.984375 4.1875 -4.671875 C 5.113281 -3.367188 6.316406 -2.359375 7.796875 -1.640625 C 9.285156 -0.929688 10.976562 -0.578125 12.875 -0.578125 C 15.570312 -0.578125 17.71875 -1.203125 19.3125 -2.453125 C 20.914062 -3.703125 21.71875 -5.347656 21.71875 -7.390625 C 21.71875 -9.015625 21.171875 -10.320312 20.078125 -11.3125 C 18.992188 -12.300781 17.238281 -13.085938 14.8125 -13.671875 L 9.625 -14.859375 C 4.800781 -15.960938 2.40625 -18.25 2.4375 -21.71875 C 2.4375 -24.21875 3.269531 -26.21875 4.9375 -27.71875 C 6.601562 -29.21875 8.835938 -29.96875 11.640625 -29.96875 C 14.171875 -29.96875 16.316406 -29.21875 18.078125 -27.71875 C 19.835938 -26.21875 20.941406 -24.203125 21.390625 -21.671875 L 19.78125 -21.296875 C 19.414062 -23.441406 18.503906 -25.15625 17.046875 -26.4375 C 15.585938 -27.71875 13.800781 -28.359375 11.6875 -28.359375 C 9.375 -28.359375 7.53125 -27.765625 6.15625 -26.578125 C 4.78125 -25.398438 4.09375 -23.832031 4.09375 -21.875 C 4.09375 -20.476562 4.570312 -19.359375 5.53125 -18.515625 C 6.488281 -17.671875 8.015625 -17.003906 10.109375 -16.515625 L 15.3125 -15.28125 C 20.707031 -14.0625 23.40625 -11.5 23.40625 -7.59375 C 23.40625 -5.863281 22.972656 -4.347656 22.109375 -3.046875 C 21.242188 -1.753906 20.023438 -0.75 18.453125 -0.03125 C 16.878906 0.675781 15.019531 1.03125 12.875 1.03125 Z M 12.875 1.03125 "/></g></g></g><g fill="#000000" fill-opacity="1"><g transform="translate(225.410322, 51.304173)"><g><path d="M 3.140625 0.40625 C 2.703125 0.40625 2.34375 0.273438 2.0625 0.015625 C 1.789062 -0.242188 1.65625 -0.59375 1.65625 -1.03125 C 1.65625 -1.445312 1.789062 -1.789062 2.0625 -2.0625 C 2.34375 -2.34375 2.703125 -2.484375 3.140625 -2.484375 C 3.578125 -2.484375 3.925781 -2.34375 4.1875 -2.0625 C 4.445312 -1.789062 4.578125 -1.445312 4.578125 -1.03125 C 4.578125 -0.613281 4.445312 -0.269531 4.1875 0 C 3.925781 0.269531 3.578125 0.40625 3.140625 0.40625 Z M 3.140625 0.40625 "/></g></g></g><g fill="#000000" fill-opacity="1"><g transform="translate(232.055815, 51.304173)"><g/></g></g><g fill="#000000" fill-opacity="1"><g transform="translate(243.94339, 51.304173)"><g><path d="M 16.796875 1.03125 C 13.710938 1.03125 11.019531 0.390625 8.71875 -0.890625 C 6.425781 -2.171875 4.640625 -3.972656 3.359375 -6.296875 C 2.078125 -8.617188 1.4375 -11.335938 1.4375 -14.453125 C 1.4375 -17.585938 2.078125 -20.316406 3.359375 -22.640625 C 4.640625 -24.960938 6.425781 -26.765625 8.71875 -28.046875 C 11.019531 -29.328125 13.710938 -29.96875 16.796875 -29.96875 C 19.878906 -29.96875 22.566406 -29.328125 24.859375 -28.046875 C 27.160156 -26.765625 28.953125 -24.960938 30.234375 -22.640625 C 31.515625 -20.316406 32.15625 -17.585938 32.15625 -14.453125 C 32.15625 -11.335938 31.515625 -8.617188 30.234375 -6.296875 C 28.953125 -3.972656 27.160156 -2.171875 24.859375 -0.890625 C 22.566406 0.390625 19.878906 1.03125 16.796875 1.03125 Z M 16.796875 -0.578125 C 19.546875 -0.578125 21.941406 -1.15625 23.984375 -2.3125 C 26.023438 -3.46875 27.613281 -5.082031 28.75 -7.15625 C 29.894531 -9.238281 30.46875 -11.671875 30.46875 -14.453125 C 30.46875 -17.253906 29.894531 -19.691406 28.75 -21.765625 C 27.613281 -23.847656 26.023438 -25.46875 23.984375 -26.625 C 21.941406 -27.78125 19.546875 -28.359375 16.796875 -28.359375 C 14.046875 -28.359375 11.644531 -27.78125 9.59375 -26.625 C 7.539062 -25.46875 5.953125 -23.847656 4.828125 -21.765625 C 3.703125 -19.691406 3.140625 -17.253906 3.140625 -14.453125 C 3.140625 -11.671875 3.703125 -9.238281 4.828125 -7.15625 C 5.953125 -5.082031 7.539062 -3.46875 9.59375 -2.3125 C 11.644531 -1.15625 14.046875 -0.578125 16.796875 -0.578125 Z M 16.796875 -0.578125 "/></g></g></g><g fill="#000000" fill-opacity="1"><g transform="translate(277.955079, 51.304173)"><g><path d="M 9.65625 -21.5 C 11.25 -21.5 12.601562 -20.988281 13.71875 -19.96875 C 14.832031 -18.957031 15.503906 -17.3125 15.734375 -15.03125 L 14.234375 -14.53125 C 14.046875 -16.40625 13.53125 -17.773438 12.6875 -18.640625 C 11.851562 -19.503906 10.789062 -19.9375 9.5 -19.9375 C 7.789062 -19.9375 6.398438 -19.238281 5.328125 -17.84375 C 4.253906 -16.457031 3.71875 -14.664062 3.71875 -12.46875 L 3.71875 0 L 2.0625 0 L 2.0625 -20.6875 L 3.59375 -20.6875 L 3.59375 -17.34375 L 3.625 -17.34375 C 4.207031 -18.601562 5.019531 -19.609375 6.0625 -20.359375 C 7.113281 -21.117188 8.3125 -21.5 9.65625 -21.5 Z M 9.65625 -21.5 "/></g></g></g><g fill="#000000" fill-opacity="1"><g transform="translate(294.919652, 51.304173)"><g><path d="M 10.234375 0.828125 C 8.503906 0.828125 7.125 0.289062 6.09375 -0.78125 C 5.0625 -1.851562 4.546875 -3.285156 4.546875 -5.078125 L 4.546875 -19.15625 L 0 -19.15625 L 0 -20.6875 L 4.546875 -20.6875 L 4.546875 -26.953125 L 6.1875 -27.453125 L 6.1875 -20.6875 L 15.3125 -20.6875 L 15.3125 -19.15625 L 6.1875 -19.15625 L 6.1875 -5.15625 C 6.1875 -3.8125 6.554688 -2.738281 7.296875 -1.9375 C 8.046875 -1.144531 9.050781 -0.75 10.3125 -0.75 C 11.445312 -0.75 12.429688 -1.097656 13.265625 -1.796875 C 14.109375 -2.492188 14.597656 -3.410156 14.734375 -4.546875 L 16.21875 -4 C 16 -2.570312 15.316406 -1.410156 14.171875 -0.515625 C 13.035156 0.378906 11.722656 0.828125 10.234375 0.828125 Z M 10.234375 0.828125 "/></g></g></g><g clip-path="url(#fe1cd82edf)"><g clip-path="url(#659883db8f)"><path fill="#e41d5a" d="M 45.246094 52.050781 L 40.441406 52.050781 L 40.441406 24.191406 L 45.246094 24.191406 Z M 45.246094 52.050781 " fill-opacity="1" fill-rule="nonzero"/></g></g><g clip-path="url(#21dbe39a0a)"><g clip-path="url(#08aeb03aa9)"><path fill="#19b5d0" d="M 5.757812 52.054688 L 0.953125 52.054688 L 0.953125 33.507812 L 5.757812 33.507812 Z M 5.757812 52.054688 " fill-opacity="1" fill-rule="nonzero"/></g></g><g clip-path="url(#c44494affb)"><g clip-path="url(#274d9b2580)"><path fill="#ec7031" d="M 35.375 52.054688 L 30.570312 52.054688 L 30.570312 19.3125 L 35.375 19.3125 Z M 35.375 52.054688 " fill-opacity="1" fill-rule="nonzero"/></g></g><g clip-path="url(#2101ae8ff1)"><g clip-path="url(#e0cd635a64)"><path fill="#00ac8a" d="M 15.632812 52.050781 L 10.824219 52.050781 L 10.824219 24.191406 L 15.632812 24.191406 Z M 15.632812 52.050781 " fill-opacity="1" fill-rule="nonzero"/></g></g><g clip-path="url(#e54cedbd00)"><g clip-path="url(#ea7e187e35)"><path fill="#f2bd3c" d="M 25.503906 52.050781 L 20.695312 52.050781 L 20.695312 14.972656 L 25.503906 14.972656 Z M 25.503906 52.050781 " fill-opacity="1" fill-rule="nonzero"/></g></g></svg>