<svg xmlns="http://www.w3.org/2000/svg" xmlns:xlink="http://www.w3.org/1999/xlink" zoomAndPan="magnify" viewBox="0 0 338.25 87" preserveAspectRatio="xMidYMid meet" version="1.0"><defs><g/><clipPath id="aaeb682499"><path d="M 39.625 30.367188 L 44.449219 30.367188 L 44.449219 76.601562 L 39.625 76.601562 Z M 39.625 30.367188 " clip-rule="nonzero"/></clipPath><clipPath id="bcabbbff67"><path d="M 42.035156 76.601562 C 41.394531 76.601562 40.78125 76.347656 40.332031 75.898438 C 39.878906 75.445312 39.625 74.832031 39.625 74.191406 L 39.625 32.785156 C 39.625 32.144531 39.878906 31.53125 40.332031 31.082031 C 40.78125 30.628906 41.394531 30.375 42.035156 30.375 C 42.675781 30.375 43.289062 30.628906 43.742188 31.082031 C 44.195312 31.53125 44.449219 32.144531 44.449219 32.785156 L 44.449219 74.191406 C 44.449219 74.832031 44.195312 75.445312 43.742188 75.898438 C 43.289062 76.347656 42.675781 76.601562 42.035156 76.601562 Z M 42.035156 76.601562 " clip-rule="nonzero"/></clipPath><clipPath id="9c45de6e34"><path d="M 0 45.835938 L 4.816406 45.835938 L 4.816406 76.601562 L 0 76.601562 Z M 0 45.835938 " clip-rule="nonzero"/></clipPath><clipPath id="131d11edf3"><path d="M 2.40625 76.601562 C 1.765625 76.601562 1.152344 76.347656 0.699219 75.894531 C 0.25 75.445312 -0.00390625 74.832031 -0.00390625 74.191406 L -0.00390625 48.253906 C -0.00390625 47.613281 0.25 47 0.699219 46.546875 C 1.152344 46.09375 1.765625 45.839844 2.40625 45.839844 C 3.046875 45.839844 3.660156 46.09375 4.109375 46.546875 C 4.5625 47 4.816406 47.613281 4.816406 48.253906 L 4.816406 74.191406 C 4.816406 74.832031 4.5625 75.445312 4.109375 75.894531 C 3.660156 76.347656 3.046875 76.601562 2.40625 76.601562 Z M 2.40625 76.601562 " clip-rule="nonzero"/></clipPath><clipPath id="c326695462"><path d="M 29.714844 22.289062 L 34.539062 22.289062 L 34.539062 76.605469 L 29.714844 76.605469 Z M 29.714844 22.289062 " clip-rule="nonzero"/></clipPath><clipPath id="471bc60b2c"><path d="M 32.128906 76.605469 C 31.488281 76.605469 30.875 76.351562 30.421875 75.898438 C 29.972656 75.449219 29.714844 74.835938 29.714844 74.195312 L 29.714844 24.710938 C 29.714844 24.070312 29.972656 23.457031 30.421875 23.007812 C 30.875 22.554688 31.488281 22.300781 32.128906 22.300781 C 32.769531 22.300781 33.382812 22.554688 33.832031 23.007812 C 34.285156 23.457031 34.539062 24.070312 34.539062 24.710938 L 34.539062 74.195312 C 34.539062 74.835938 34.285156 75.449219 33.832031 75.898438 C 33.382812 76.351562 32.769531 76.605469 32.128906 76.605469 Z M 32.128906 76.605469 " clip-rule="nonzero"/></clipPath><clipPath id="8b4d36ae07"><path d="M 9.902344 30.367188 L 14.726562 30.367188 L 14.726562 76.601562 L 9.902344 76.601562 Z M 9.902344 30.367188 " clip-rule="nonzero"/></clipPath><clipPath id="96f159ffe1"><path d="M 12.3125 76.601562 C 11.671875 76.601562 11.058594 76.347656 10.609375 75.898438 C 10.15625 75.445312 9.902344 74.832031 9.902344 74.191406 L 9.902344 32.785156 C 9.902344 32.144531 10.15625 31.53125 10.609375 31.082031 C 11.058594 30.628906 11.671875 30.375 12.3125 30.375 C 12.953125 30.375 13.566406 30.628906 14.019531 31.082031 C 14.472656 31.53125 14.726562 32.144531 14.726562 32.785156 L 14.726562 74.191406 C 14.726562 74.832031 14.472656 75.445312 14.019531 75.898438 C 13.566406 76.347656 12.953125 76.601562 12.3125 76.601562 Z M 12.3125 76.601562 " clip-rule="nonzero"/></clipPath><clipPath id="20b8e8db36"><path d="M 19.808594 15.070312 L 24.632812 15.070312 L 24.632812 76.605469 L 19.808594 76.605469 Z M 19.808594 15.070312 " clip-rule="nonzero"/></clipPath><clipPath id="642765d84f"><path d="M 22.222656 76.605469 C 21.582031 76.605469 20.96875 76.351562 20.515625 75.898438 C 20.0625 75.445312 19.808594 74.832031 19.808594 74.191406 L 19.808594 17.496094 C 19.808594 16.855469 20.0625 16.242188 20.515625 15.789062 C 20.96875 15.335938 21.582031 15.082031 22.222656 15.082031 C 22.859375 15.082031 23.472656 15.335938 23.925781 15.789062 C 24.378906 16.242188 24.632812 16.855469 24.632812 17.496094 L 24.632812 74.191406 C 24.632812 74.832031 24.378906 75.445312 23.925781 75.898438 C 23.472656 76.351562 22.859375 76.605469 22.222656 76.605469 Z M 22.222656 76.605469 " clip-rule="nonzero"/></clipPath></defs><g fill="#000000" fill-opacity="1"><g transform="translate(53.486645, 51.586266)"><g><path d="M 2.484375 0 L 2.484375 -29.03125 L 15.125 -29.03125 C 17.738281 -29.03125 19.796875 -28.375 21.296875 -27.0625 C 22.804688 -25.757812 23.5625 -23.957031 23.5625 -21.65625 C 23.5625 -19.976562 23.085938 -18.554688 22.140625 -17.390625 C 21.191406 -16.234375 19.898438 -15.503906 18.265625 -15.203125 L 18.265625 -15.15625 C 20.285156 -14.882812 21.867188 -14.097656 23.015625 -12.796875 C 24.160156 -11.503906 24.734375 -9.875 24.734375 -7.90625 C 24.734375 -5.476562 23.875 -3.550781 22.15625 -2.125 C 20.445312 -0.707031 18.101562 0 15.125 0 Z M 4.1875 -15.90625 L 15.03125 -15.90625 C 17.15625 -15.90625 18.828125 -16.421875 20.046875 -17.453125 C 21.265625 -18.492188 21.875 -19.894531 21.875 -21.65625 C 21.875 -23.425781 21.265625 -24.828125 20.046875 -25.859375 C 18.828125 -26.898438 17.15625 -27.421875 15.03125 -27.421875 L 4.1875 -27.421875 Z M 4.1875 -1.609375 L 15.03125 -1.609375 C 17.488281 -1.609375 19.4375 -2.179688 20.875 -3.328125 C 22.3125 -4.472656 23.03125 -6.015625 23.03125 -7.953125 C 23.03125 -9.910156 22.3125 -11.457031 20.875 -12.59375 C 19.4375 -13.726562 17.488281 -14.296875 15.03125 -14.296875 L 4.1875 -14.296875 Z M 4.1875 -1.609375 "/></g></g></g><g fill="#000000" fill-opacity="1"><g transform="translate(79.874919, 51.586266)"><g><path d="M 9.6875 -21.578125 C 11.289062 -21.578125 12.648438 -21.066406 13.765625 -20.046875 C 14.890625 -19.023438 15.5625 -17.367188 15.78125 -15.078125 L 14.296875 -14.578125 C 14.097656 -16.453125 13.578125 -17.820312 12.734375 -18.6875 C 11.890625 -19.5625 10.820312 -20 9.53125 -20 C 7.8125 -20 6.414062 -19.300781 5.34375 -17.90625 C 4.269531 -16.519531 3.734375 -14.722656 3.734375 -12.515625 L 3.734375 0 L 2.078125 0 L 2.078125 -20.75 L 3.609375 -20.75 L 3.609375 -17.390625 L 3.640625 -17.390625 C 4.222656 -18.660156 5.035156 -19.675781 6.078125 -20.4375 C 7.128906 -21.195312 8.332031 -21.578125 9.6875 -21.578125 Z M 9.6875 -21.578125 "/></g></g></g><g fill="#000000" fill-opacity="1"><g transform="translate(96.900949, 51.586266)"><g><path d="M 12.671875 0.828125 C 10.460938 0.828125 8.492188 0.34375 6.765625 -0.625 C 5.046875 -1.59375 3.695312 -2.925781 2.71875 -4.625 C 1.738281 -6.320312 1.25 -8.257812 1.25 -10.4375 C 1.25 -12.59375 1.695312 -14.507812 2.59375 -16.1875 C 3.488281 -17.875 4.722656 -19.191406 6.296875 -20.140625 C 7.867188 -21.097656 9.664062 -21.578125 11.6875 -21.578125 C 13.644531 -21.578125 15.347656 -21.09375 16.796875 -20.125 C 18.242188 -19.164062 19.394531 -17.847656 20.25 -16.171875 C 21.113281 -14.503906 21.582031 -12.578125 21.65625 -10.390625 L 21.65625 -9.8125 L 2.90625 -9.8125 C 2.988281 -8.050781 3.457031 -6.484375 4.3125 -5.109375 C 5.164062 -3.742188 6.316406 -2.675781 7.765625 -1.90625 C 9.210938 -1.132812 10.863281 -0.75 12.71875 -0.75 C 14.507812 -0.75 16.171875 -1.195312 17.703125 -2.09375 C 19.234375 -2.988281 20.359375 -4.128906 21.078125 -5.515625 L 22.53125 -4.8125 C 21.976562 -3.695312 21.195312 -2.710938 20.1875 -1.859375 C 19.1875 -1.003906 18.039062 -0.34375 16.75 0.125 C 15.46875 0.59375 14.109375 0.828125 12.671875 0.828125 Z M 2.9375 -11.390625 L 19.96875 -11.390625 C 19.851562 -13.097656 19.421875 -14.601562 18.671875 -15.90625 C 17.929688 -17.207031 16.957031 -18.210938 15.75 -18.921875 C 14.550781 -19.640625 13.179688 -20 11.640625 -20 C 10.035156 -20 8.597656 -19.632812 7.328125 -18.90625 C 6.054688 -18.175781 5.039062 -17.160156 4.28125 -15.859375 C 3.519531 -14.566406 3.070312 -13.078125 2.9375 -11.390625 Z M 2.9375 -11.390625 "/></g></g></g><g fill="#000000" fill-opacity="1"><g transform="translate(120.720817, 51.586266)"><g><path d="M 12.296875 -21.578125 C 14.753906 -21.578125 16.671875 -20.875 18.046875 -19.46875 C 19.429688 -18.0625 20.125 -16.113281 20.125 -13.625 L 20.125 0 L 18.46875 0 L 18.46875 -13.546875 C 18.46875 -15.554688 17.898438 -17.132812 16.765625 -18.28125 C 15.640625 -19.425781 14.066406 -20 12.046875 -20 C 9.484375 -20 7.457031 -19.257812 5.96875 -17.78125 C 4.476562 -16.3125 3.734375 -14.375 3.734375 -11.96875 L 3.734375 0 L 2.078125 0 L 2.078125 -20.75 L 3.640625 -20.75 L 3.734375 -16.8125 L 3.765625 -16.8125 C 4.484375 -18.300781 5.582031 -19.46875 7.0625 -20.3125 C 8.539062 -21.15625 10.285156 -21.578125 12.296875 -21.578125 Z M 12.296875 -21.578125 "/></g></g></g><g fill="#000000" fill-opacity="1"><g transform="translate(143.132207, 51.586266)"><g><path d="M 12.296875 -21.578125 C 14.753906 -21.578125 16.671875 -20.875 18.046875 -19.46875 C 19.429688 -18.0625 20.125 -16.113281 20.125 -13.625 L 20.125 0 L 18.46875 0 L 18.46875 -13.546875 C 18.46875 -15.554688 17.898438 -17.132812 16.765625 -18.28125 C 15.640625 -19.425781 14.066406 -20 12.046875 -20 C 9.484375 -20 7.457031 -19.257812 5.96875 -17.78125 C 4.476562 -16.3125 3.734375 -14.375 3.734375 -11.96875 L 3.734375 0 L 2.078125 0 L 2.078125 -20.75 L 3.640625 -20.75 L 3.734375 -16.8125 L 3.765625 -16.8125 C 4.484375 -18.300781 5.582031 -19.46875 7.0625 -20.3125 C 8.539062 -21.15625 10.285156 -21.578125 12.296875 -21.578125 Z M 12.296875 -21.578125 "/></g></g></g><g fill="#000000" fill-opacity="1"><g transform="translate(165.543598, 51.586266)"><g><path d="M 8.53125 0.828125 C 6.1875 0.828125 4.316406 0.316406 2.921875 -0.703125 C 1.523438 -1.722656 0.828125 -3.101562 0.828125 -4.84375 C 0.828125 -5.925781 1.128906 -6.914062 1.734375 -7.8125 C 2.347656 -8.707031 3.410156 -9.492188 4.921875 -10.171875 C 6.441406 -10.847656 8.570312 -11.378906 11.3125 -11.765625 L 16.734375 -12.515625 C 17.484375 -12.597656 17.859375 -12.96875 17.859375 -13.625 C 17.859375 -15.914062 17.1875 -17.566406 15.84375 -18.578125 C 14.5 -19.585938 12.804688 -20.09375 10.765625 -20.09375 C 9.328125 -20.09375 8.03125 -19.800781 6.875 -19.21875 C 5.71875 -18.632812 4.804688 -17.863281 4.140625 -16.90625 C 3.472656 -15.957031 3.140625 -14.921875 3.140625 -13.796875 L 1.53125 -14.375 C 1.644531 -15.695312 2.113281 -16.910156 2.9375 -18.015625 C 3.769531 -19.117188 4.867188 -20 6.234375 -20.65625 C 7.597656 -21.320312 9.109375 -21.65625 10.765625 -21.65625 C 12.453125 -21.65625 13.941406 -21.359375 15.234375 -20.765625 C 16.535156 -20.171875 17.566406 -19.28125 18.328125 -18.09375 C 19.085938 -16.90625 19.46875 -15.390625 19.46875 -13.546875 L 19.46875 -2.6875 C 19.46875 -2.082031 19.617188 -1.609375 19.921875 -1.265625 C 20.222656 -0.921875 20.625 -0.75 21.125 -0.75 C 21.507812 -0.75 21.910156 -0.878906 22.328125 -1.140625 C 22.742188 -1.398438 23.085938 -1.753906 23.359375 -2.203125 L 24.4375 -1.125 C 24.050781 -0.539062 23.539062 -0.0703125 22.90625 0.28125 C 22.269531 0.644531 21.617188 0.828125 20.953125 0.828125 C 20.015625 0.828125 19.265625 0.523438 18.703125 -0.078125 C 18.140625 -0.691406 17.84375 -1.492188 17.8125 -2.484375 L 17.8125 -4.921875 L 17.765625 -4.921875 C 17.078125 -3.160156 15.914062 -1.757812 14.28125 -0.71875 C 12.65625 0.3125 10.738281 0.828125 8.53125 0.828125 Z M 8.65625 -0.75 C 10.425781 -0.75 11.992188 -1.117188 13.359375 -1.859375 C 14.722656 -2.609375 15.804688 -3.648438 16.609375 -4.984375 C 17.410156 -6.328125 17.8125 -7.910156 17.8125 -9.734375 L 17.8125 -11.09375 L 11.4375 -10.1875 C 9 -9.851562 7.140625 -9.414062 5.859375 -8.875 C 4.578125 -8.34375 3.691406 -7.738281 3.203125 -7.0625 C 2.722656 -6.382812 2.484375 -5.644531 2.484375 -4.84375 C 2.484375 -3.601562 3.039062 -2.609375 4.15625 -1.859375 C 5.28125 -1.117188 6.78125 -0.75 8.65625 -0.75 Z M 8.65625 -0.75 "/></g></g></g><g fill="#000000" fill-opacity="1"><g transform="translate(190.399114, 51.586266)"><g/></g></g><g fill="#000000" fill-opacity="1"><g transform="translate(202.329763, 51.586266)"><g><path d="M 12.921875 1.03125 C 10.765625 1.03125 8.820312 0.625 7.09375 -0.1875 C 5.375 -1 3.96875 -2.148438 2.875 -3.640625 C 1.789062 -5.128906 1.109375 -6.882812 0.828125 -8.90625 L 2.484375 -9.28125 C 2.703125 -7.539062 3.273438 -6.015625 4.203125 -4.703125 C 5.128906 -3.390625 6.335938 -2.375 7.828125 -1.65625 C 9.316406 -0.9375 11.015625 -0.578125 12.921875 -0.578125 C 15.628906 -0.578125 17.78125 -1.203125 19.375 -2.453125 C 20.976562 -3.710938 21.78125 -5.367188 21.78125 -7.421875 C 21.78125 -9.046875 21.234375 -10.351562 20.140625 -11.34375 C 19.054688 -12.34375 17.300781 -13.128906 14.875 -13.703125 L 9.65625 -14.90625 C 4.820312 -16.007812 2.414062 -18.300781 2.4375 -21.78125 C 2.4375 -24.300781 3.269531 -26.3125 4.9375 -27.8125 C 6.613281 -29.320312 8.863281 -30.078125 11.6875 -30.078125 C 14.21875 -30.078125 16.367188 -29.320312 18.140625 -27.8125 C 19.910156 -26.3125 21.015625 -24.289062 21.453125 -21.75 L 19.84375 -21.375 C 19.476562 -23.53125 18.5625 -25.25 17.09375 -26.53125 C 15.632812 -27.8125 13.84375 -28.453125 11.71875 -28.453125 C 9.40625 -28.453125 7.554688 -27.859375 6.171875 -26.671875 C 4.785156 -25.484375 4.09375 -23.910156 4.09375 -21.953125 C 4.09375 -20.546875 4.578125 -19.421875 5.546875 -18.578125 C 6.515625 -17.734375 8.046875 -17.0625 10.140625 -16.5625 L 15.375 -15.328125 C 20.78125 -14.109375 23.484375 -11.539062 23.484375 -7.625 C 23.484375 -5.882812 23.046875 -4.363281 22.171875 -3.0625 C 21.304688 -1.769531 20.085938 -0.765625 18.515625 -0.046875 C 16.941406 0.671875 15.078125 1.03125 12.921875 1.03125 Z M 12.921875 1.03125 "/></g></g></g><g fill="#000000" fill-opacity="1"><g transform="translate(227.061017, 51.586266)"><g><path d="M 3.140625 0.421875 C 2.703125 0.421875 2.34375 0.285156 2.0625 0.015625 C 1.789062 -0.242188 1.65625 -0.59375 1.65625 -1.03125 C 1.65625 -1.445312 1.789062 -1.789062 2.0625 -2.0625 C 2.34375 -2.34375 2.703125 -2.484375 3.140625 -2.484375 C 3.585938 -2.484375 3.941406 -2.34375 4.203125 -2.0625 C 4.460938 -1.789062 4.59375 -1.445312 4.59375 -1.03125 C 4.59375 -0.625 4.460938 -0.28125 4.203125 0 C 3.941406 0.28125 3.585938 0.421875 3.140625 0.421875 Z M 3.140625 0.421875 "/></g></g></g><g fill="#000000" fill-opacity="1"><g transform="translate(233.730585, 51.586266)"><g/></g></g><g fill="#000000" fill-opacity="1"><g transform="translate(245.661225, 51.586266)"><g><path d="M 16.859375 1.03125 C 13.765625 1.03125 11.0625 0.390625 8.75 -0.890625 C 6.445312 -2.171875 4.65625 -3.976562 3.375 -6.3125 C 2.09375 -8.644531 1.453125 -11.375 1.453125 -14.5 C 1.453125 -17.644531 2.09375 -20.382812 3.375 -22.71875 C 4.65625 -25.050781 6.445312 -26.859375 8.75 -28.140625 C 11.0625 -29.429688 13.765625 -30.078125 16.859375 -30.078125 C 19.953125 -30.078125 22.648438 -29.429688 24.953125 -28.140625 C 27.265625 -26.859375 29.0625 -25.050781 30.34375 -22.71875 C 31.625 -20.382812 32.265625 -17.644531 32.265625 -14.5 C 32.265625 -11.375 31.625 -8.644531 30.34375 -6.3125 C 29.0625 -3.976562 27.265625 -2.171875 24.953125 -0.890625 C 22.648438 0.390625 19.953125 1.03125 16.859375 1.03125 Z M 16.859375 -0.578125 C 19.617188 -0.578125 22.019531 -1.15625 24.0625 -2.3125 C 26.101562 -3.476562 27.695312 -5.101562 28.84375 -7.1875 C 29.988281 -9.269531 30.5625 -11.707031 30.5625 -14.5 C 30.5625 -17.3125 29.988281 -19.757812 28.84375 -21.84375 C 27.695312 -23.9375 26.101562 -25.5625 24.0625 -26.71875 C 22.019531 -27.875 19.617188 -28.453125 16.859375 -28.453125 C 14.097656 -28.453125 11.6875 -27.875 9.625 -26.71875 C 7.570312 -25.5625 5.976562 -23.9375 4.84375 -21.84375 C 3.707031 -19.757812 3.140625 -17.3125 3.140625 -14.5 C 3.140625 -11.707031 3.707031 -9.269531 4.84375 -7.1875 C 5.976562 -5.101562 7.570312 -3.476562 9.625 -2.3125 C 11.6875 -1.15625 14.097656 -0.578125 16.859375 -0.578125 Z M 16.859375 -0.578125 "/></g></g></g><g fill="#000000" fill-opacity="1"><g transform="translate(279.796126, 51.586266)"><g><path d="M 9.6875 -21.578125 C 11.289062 -21.578125 12.648438 -21.066406 13.765625 -20.046875 C 14.890625 -19.023438 15.5625 -17.367188 15.78125 -15.078125 L 14.296875 -14.578125 C 14.097656 -16.453125 13.578125 -17.820312 12.734375 -18.6875 C 11.890625 -19.5625 10.820312 -20 9.53125 -20 C 7.8125 -20 6.414062 -19.300781 5.34375 -17.90625 C 4.269531 -16.519531 3.734375 -14.722656 3.734375 -12.515625 L 3.734375 0 L 2.078125 0 L 2.078125 -20.75 L 3.609375 -20.75 L 3.609375 -17.390625 L 3.640625 -17.390625 C 4.222656 -18.660156 5.035156 -19.675781 6.078125 -20.4375 C 7.128906 -21.195312 8.332031 -21.578125 9.6875 -21.578125 Z M 9.6875 -21.578125 "/></g></g></g><g fill="#000000" fill-opacity="1"><g transform="translate(296.822156, 51.586266)"><g><path d="M 10.265625 0.828125 C 8.523438 0.828125 7.140625 0.289062 6.109375 -0.78125 C 5.078125 -1.863281 4.5625 -3.300781 4.5625 -5.09375 L 4.5625 -19.21875 L 0 -19.21875 L 0 -20.75 L 4.5625 -20.75 L 4.5625 -27.046875 L 6.21875 -27.546875 L 6.21875 -20.75 L 15.375 -20.75 L 15.375 -19.21875 L 6.21875 -19.21875 L 6.21875 -5.171875 C 6.21875 -3.816406 6.585938 -2.738281 7.328125 -1.9375 C 8.078125 -1.144531 9.085938 -0.75 10.359375 -0.75 C 11.484375 -0.75 12.46875 -1.097656 13.3125 -1.796875 C 14.15625 -2.503906 14.644531 -3.425781 14.78125 -4.5625 L 16.28125 -4.015625 C 16.0625 -2.578125 15.378906 -1.410156 14.234375 -0.515625 C 13.085938 0.378906 11.765625 0.828125 10.265625 0.828125 Z M 10.265625 0.828125 "/></g></g></g><g fill="#4a4546" fill-opacity="1"><g transform="translate(55.739158, 75.602759)"><g><path d="M 1.28125 -10.125 L 4.375 -5.234375 L 7.484375 -10.125 L 8.453125 -10.125 L 4.75 -4.40625 L 4.75 0 L 3.84375 0 L 3.84375 -4.375 L 0.109375 -10.125 Z M 1.28125 -10.125 "/></g></g></g><g fill="#4a4546" fill-opacity="1"><g transform="translate(64.873885, 75.602759)"><g><path d="M 9.96875 -5.0625 C 9.96875 -3.457031 9.570312 -2.175781 8.78125 -1.21875 C 7.988281 -0.269531 6.878906 0.203125 5.453125 0.203125 C 4.035156 0.203125 2.929688 -0.269531 2.140625 -1.21875 C 1.359375 -2.164062 0.957031 -3.445312 0.9375 -5.0625 C 0.9375 -6.6875 1.332031 -7.96875 2.125 -8.90625 C 2.925781 -9.851562 4.035156 -10.332031 5.453125 -10.34375 C 6.878906 -10.34375 7.988281 -9.863281 8.78125 -8.90625 C 9.570312 -7.957031 9.96875 -6.675781 9.96875 -5.0625 Z M 5.453125 -0.625 C 6.554688 -0.625 7.421875 -1.035156 8.046875 -1.859375 C 8.679688 -2.679688 9 -3.75 9 -5.0625 C 9 -6.40625 8.679688 -7.476562 8.046875 -8.28125 C 7.410156 -9.09375 6.539062 -9.5 5.4375 -9.5 C 4.363281 -9.5 3.515625 -9.09375 2.890625 -8.28125 C 2.265625 -7.476562 1.941406 -6.40625 1.921875 -5.0625 C 1.921875 -3.769531 2.226562 -2.710938 2.84375 -1.890625 C 3.457031 -1.066406 4.328125 -0.644531 5.453125 -0.625 Z M 5.453125 -0.625 "/></g></g></g><g fill="#4a4546" fill-opacity="1"><g transform="translate(76.351847, 75.602759)"><g><path d="M 2.265625 -10.125 L 2.265625 -3.6875 C 2.265625 -2.769531 2.515625 -2.03125 3.015625 -1.46875 C 3.523438 -0.90625 4.207031 -0.625 5.0625 -0.625 C 5.9375 -0.625 6.617188 -0.898438 7.109375 -1.453125 C 7.609375 -2.015625 7.859375 -2.773438 7.859375 -3.734375 L 7.859375 -10.125 L 8.765625 -10.125 L 8.765625 -3.671875 C 8.765625 -2.484375 8.441406 -1.539062 7.796875 -0.84375 C 7.148438 -0.144531 6.238281 0.203125 5.0625 0.203125 C 3.894531 0.203125 2.984375 -0.140625 2.328125 -0.828125 C 1.679688 -1.515625 1.359375 -2.453125 1.359375 -3.640625 L 1.359375 -10.125 Z M 2.265625 -10.125 "/></g></g></g><g fill="#4a4546" fill-opacity="1"><g transform="translate(87.044048, 75.602759)"><g><path d="M 4.96875 -10.125 C 5.976562 -10.125 6.765625 -9.898438 7.328125 -9.453125 C 7.898438 -9.015625 8.1875 -8.363281 8.1875 -7.5 C 8.1875 -6.957031 8.015625 -6.492188 7.671875 -6.109375 C 7.328125 -5.734375 6.847656 -5.460938 6.234375 -5.296875 L 6.234375 -5.28125 C 6.804688 -5.1875 7.226562 -4.9375 7.5 -4.53125 C 7.769531 -4.125 7.9375 -3.347656 8 -2.203125 C 8.0625 -1.054688 8.210938 -0.320312 8.453125 0 L 7.40625 0 C 7.226562 -0.445312 7.101562 -1.195312 7.03125 -2.25 C 6.96875 -3.300781 6.816406 -3.992188 6.578125 -4.328125 C 6.347656 -4.660156 5.8125 -4.828125 4.96875 -4.828125 L 2.359375 -4.828125 L 2.359375 0 L 1.4375 0 L 1.4375 -10.125 Z M 4.484375 -5.671875 C 5.453125 -5.671875 6.144531 -5.8125 6.5625 -6.09375 C 6.988281 -6.382812 7.203125 -6.847656 7.203125 -7.484375 C 7.203125 -8.109375 7.015625 -8.5625 6.640625 -8.84375 C 6.273438 -9.132812 5.726562 -9.28125 5 -9.28125 L 2.359375 -9.28125 L 2.359375 -5.671875 Z M 4.484375 -5.671875 "/></g></g></g><g fill="#4a4546" fill-opacity="1"><g transform="translate(96.964535, 75.602759)"><g/></g></g><g fill="#4a4546" fill-opacity="1"><g transform="translate(101.426826, 75.602759)"><g><path d="M 2.3125 -10.125 L 2.3125 -0.84375 L 7.40625 -0.84375 L 7.40625 0 L 1.40625 0 L 1.40625 -10.125 Z M 2.3125 -10.125 "/></g></g></g><g fill="#4a4546" fill-opacity="1"><g transform="translate(109.789826, 75.602759)"><g><path d="M 9.96875 -5.0625 C 9.96875 -3.457031 9.570312 -2.175781 8.78125 -1.21875 C 7.988281 -0.269531 6.878906 0.203125 5.453125 0.203125 C 4.035156 0.203125 2.929688 -0.269531 2.140625 -1.21875 C 1.359375 -2.164062 0.957031 -3.445312 0.9375 -5.0625 C 0.9375 -6.6875 1.332031 -7.96875 2.125 -8.90625 C 2.925781 -9.851562 4.035156 -10.332031 5.453125 -10.34375 C 6.878906 -10.34375 7.988281 -9.863281 8.78125 -8.90625 C 9.570312 -7.957031 9.96875 -6.675781 9.96875 -5.0625 Z M 5.453125 -0.625 C 6.554688 -0.625 7.421875 -1.035156 8.046875 -1.859375 C 8.679688 -2.679688 9 -3.75 9 -5.0625 C 9 -6.40625 8.679688 -7.476562 8.046875 -8.28125 C 7.410156 -9.09375 6.539062 -9.5 5.4375 -9.5 C 4.363281 -9.5 3.515625 -9.09375 2.890625 -8.28125 C 2.265625 -7.476562 1.941406 -6.40625 1.921875 -5.0625 C 1.921875 -3.769531 2.226562 -2.710938 2.84375 -1.890625 C 3.457031 -1.066406 4.328125 -0.644531 5.453125 -0.625 Z M 5.453125 -0.625 "/></g></g></g><g fill="#4a4546" fill-opacity="1"><g transform="translate(121.267788, 75.602759)"><g><path d="M 7.609375 -7.765625 C 7.523438 -8.316406 7.265625 -8.742188 6.828125 -9.046875 C 6.398438 -9.347656 5.863281 -9.5 5.21875 -9.5 C 4.132812 -9.5 3.300781 -9.097656 2.71875 -8.296875 C 2.132812 -7.492188 1.84375 -6.414062 1.84375 -5.0625 C 1.84375 -3.707031 2.132812 -2.632812 2.71875 -1.84375 C 3.300781 -1.050781 4.132812 -0.644531 5.21875 -0.625 C 5.875 -0.625 6.425781 -0.789062 6.875 -1.125 C 7.332031 -1.46875 7.613281 -1.910156 7.71875 -2.453125 L 8.703125 -2.453125 C 8.578125 -1.679688 8.1875 -1.046875 7.53125 -0.546875 C 6.875 -0.0546875 6.101562 0.191406 5.21875 0.203125 C 3.851562 0.203125 2.789062 -0.265625 2.03125 -1.203125 C 1.269531 -2.148438 0.878906 -3.4375 0.859375 -5.0625 C 0.859375 -6.65625 1.238281 -7.925781 2 -8.875 C 2.757812 -9.832031 3.832031 -10.320312 5.21875 -10.34375 C 6.1875 -10.34375 6.96875 -10.117188 7.5625 -9.671875 C 8.15625 -9.234375 8.5 -8.597656 8.59375 -7.765625 Z M 7.609375 -7.765625 "/></g></g></g><g fill="#4a4546" fill-opacity="1"><g transform="translate(131.188275, 75.602759)"><g><path d="M 5.203125 -10.125 L 9.25 0 L 8.25 0 L 7.171875 -2.734375 L 2.125 -2.734375 L 1.0625 0 L 0.125 0 L 4.140625 -10.125 Z M 2.421875 -3.578125 L 6.84375 -3.578125 L 4.65625 -9.28125 Z M 2.421875 -3.578125 "/></g></g></g><g fill="#4a4546" fill-opacity="1"><g transform="translate(141.108762, 75.602759)"><g><path d="M 2.3125 -10.125 L 2.3125 -0.84375 L 7.40625 -0.84375 L 7.40625 0 L 1.40625 0 L 1.40625 -10.125 Z M 2.3125 -10.125 "/></g></g></g><g fill="#70696b" fill-opacity="1"><g transform="translate(149.480521, 75.602759)"><g/></g></g><g fill="#70696b" fill-opacity="1"><g transform="translate(153.947179, 75.602759)"><g><path d="M 4.734375 -10.125 C 6.210938 -10.125 7.1875 -9.851562 7.65625 -9.3125 C 8.132812 -8.78125 8.375 -8.175781 8.375 -7.5 C 8.375 -6.90625 8.210938 -6.429688 7.890625 -6.078125 C 7.566406 -5.722656 7.148438 -5.460938 6.640625 -5.296875 L 6.640625 -5.265625 C 7.304688 -5.148438 7.828125 -4.859375 8.203125 -4.390625 C 8.585938 -3.929688 8.78125 -3.398438 8.78125 -2.796875 C 8.78125 -2.015625 8.492188 -1.363281 7.921875 -0.84375 C 7.359375 -0.320312 6.300781 -0.0390625 4.75 0 L 0.953125 0 L 0.953125 -10.125 Z M 4.609375 -6 C 5.140625 -6 5.550781 -6.085938 5.84375 -6.265625 C 6.132812 -6.453125 6.28125 -6.800781 6.28125 -7.3125 C 6.28125 -7.726562 6.160156 -8.039062 5.921875 -8.25 C 5.691406 -8.46875 5.285156 -8.578125 4.703125 -8.578125 L 3.03125 -8.578125 L 3.03125 -6 Z M 4.609375 -1.625 C 5.421875 -1.625 5.957031 -1.734375 6.21875 -1.953125 C 6.488281 -2.179688 6.625 -2.523438 6.625 -2.984375 C 6.625 -3.460938 6.476562 -3.820312 6.1875 -4.0625 C 5.894531 -4.3125 5.289062 -4.4375 4.375 -4.4375 L 3.03125 -4.4375 L 3.03125 -1.625 Z M 4.609375 -1.625 "/></g></g></g><g fill="#70696b" fill-opacity="1"><g transform="translate(163.867666, 75.602759)"><g><path d="M 10.328125 -5.15625 C 10.328125 -3.5 9.894531 -2.179688 9.03125 -1.203125 C 8.175781 -0.234375 6.988281 0.25 5.46875 0.25 C 3.9375 0.25 2.742188 -0.203125 1.890625 -1.109375 C 1.035156 -2.023438 0.609375 -3.300781 0.609375 -4.9375 C 0.609375 -6.625 1.03125 -7.945312 1.875 -8.90625 C 2.726562 -9.875 3.925781 -10.359375 5.46875 -10.359375 C 7.0625 -10.359375 8.269531 -9.875 9.09375 -8.90625 C 9.914062 -7.945312 10.328125 -6.695312 10.328125 -5.15625 Z M 5.4375 -1.34375 C 6.351562 -1.34375 7.015625 -1.6875 7.421875 -2.375 C 7.835938 -3.070312 8.046875 -4.019531 8.046875 -5.21875 C 8.046875 -6.300781 7.820312 -7.164062 7.375 -7.8125 C 6.9375 -8.46875 6.3125 -8.796875 5.5 -8.796875 C 4.632812 -8.796875 3.976562 -8.472656 3.53125 -7.828125 C 3.09375 -7.191406 2.875 -6.285156 2.875 -5.109375 C 2.875 -3.847656 3.09375 -2.90625 3.53125 -2.28125 C 3.976562 -1.65625 4.613281 -1.34375 5.4375 -1.34375 Z M 5.4375 -1.34375 "/></g></g></g><g fill="#70696b" fill-opacity="1"><g transform="translate(175.345628, 75.602759)"><g><path d="M 10.328125 -5.15625 C 10.328125 -3.5 9.894531 -2.179688 9.03125 -1.203125 C 8.175781 -0.234375 6.988281 0.25 5.46875 0.25 C 3.9375 0.25 2.742188 -0.203125 1.890625 -1.109375 C 1.035156 -2.023438 0.609375 -3.300781 0.609375 -4.9375 C 0.609375 -6.625 1.03125 -7.945312 1.875 -8.90625 C 2.726562 -9.875 3.925781 -10.359375 5.46875 -10.359375 C 7.0625 -10.359375 8.269531 -9.875 9.09375 -8.90625 C 9.914062 -7.945312 10.328125 -6.695312 10.328125 -5.15625 Z M 5.4375 -1.34375 C 6.351562 -1.34375 7.015625 -1.6875 7.421875 -2.375 C 7.835938 -3.070312 8.046875 -4.019531 8.046875 -5.21875 C 8.046875 -6.300781 7.820312 -7.164062 7.375 -7.8125 C 6.9375 -8.46875 6.3125 -8.796875 5.5 -8.796875 C 4.632812 -8.796875 3.976562 -8.472656 3.53125 -7.828125 C 3.09375 -7.191406 2.875 -6.285156 2.875 -5.109375 C 2.875 -3.847656 3.09375 -2.90625 3.53125 -2.28125 C 3.976562 -1.65625 4.613281 -1.34375 5.4375 -1.34375 Z M 5.4375 -1.34375 "/></g></g></g><g fill="#70696b" fill-opacity="1"><g transform="translate(186.823589, 75.602759)"><g><path d="M 9.046875 -10.140625 L 5.328125 -5.59375 L 9.375 0 L 6.671875 0 L 3.109375 -5.15625 L 3.109375 0 L 0.9375 0 L 0.9375 -10.109375 L 3.109375 -10.109375 L 3.109375 -5.75 L 6.515625 -10.140625 Z M 9.046875 -10.140625 "/></g></g></g><g fill="#70696b" fill-opacity="1"><g transform="translate(196.744076, 75.602759)"><g><path d="M 9.046875 -10.140625 L 5.328125 -5.59375 L 9.375 0 L 6.671875 0 L 3.109375 -5.15625 L 3.109375 0 L 0.9375 0 L 0.9375 -10.109375 L 3.109375 -10.109375 L 3.109375 -5.75 L 6.515625 -10.140625 Z M 9.046875 -10.140625 "/></g></g></g><g fill="#70696b" fill-opacity="1"><g transform="translate(206.664563, 75.602759)"><g><path d="M 7.828125 -10.140625 L 7.828125 -8.484375 L 3.21875 -8.484375 L 3.21875 -6.078125 L 7.53125 -6.078125 L 7.53125 -4.421875 L 3.21875 -4.421875 L 3.21875 -1.6875 L 7.984375 -1.6875 L 7.984375 0 L 1.03125 0 L 1.03125 -10.140625 Z M 7.828125 -10.140625 "/></g></g></g><g fill="#70696b" fill-opacity="1"><g transform="translate(215.79929, 75.602759)"><g><path d="M 7.828125 -10.140625 L 7.828125 -8.484375 L 3.21875 -8.484375 L 3.21875 -6.078125 L 7.53125 -6.078125 L 7.53125 -4.421875 L 3.21875 -4.421875 L 3.21875 -1.6875 L 7.984375 -1.6875 L 7.984375 0 L 1.03125 0 L 1.03125 -10.140625 Z M 7.828125 -10.140625 "/></g></g></g><g fill="#70696b" fill-opacity="1"><g transform="translate(224.934017, 75.602759)"><g><path d="M 4.296875 -10.109375 C 5.703125 -10.109375 6.703125 -9.832031 7.296875 -9.28125 C 7.890625 -8.738281 8.1875 -8.015625 8.1875 -7.109375 C 8.1875 -6.191406 7.914062 -5.429688 7.375 -4.828125 C 6.84375 -4.234375 5.992188 -3.9375 4.828125 -3.9375 L 3.109375 -3.9375 L 3.109375 0 L 0.90625 0 L 0.90625 -10.109375 Z M 4.078125 -5.5625 C 4.734375 -5.5625 5.207031 -5.6875 5.5 -5.9375 C 5.789062 -6.195312 5.9375 -6.582031 5.9375 -7.09375 C 5.9375 -7.5625 5.800781 -7.90625 5.53125 -8.125 C 5.269531 -8.351562 4.859375 -8.46875 4.296875 -8.46875 L 3.0625 -8.46875 L 3.0625 -5.5625 Z M 4.078125 -5.5625 "/></g></g></g><g fill="#70696b" fill-opacity="1"><g transform="translate(234.068744, 75.602759)"><g><path d="M 7.828125 -10.140625 L 7.828125 -8.484375 L 3.21875 -8.484375 L 3.21875 -6.078125 L 7.53125 -6.078125 L 7.53125 -4.421875 L 3.21875 -4.421875 L 3.21875 -1.6875 L 7.984375 -1.6875 L 7.984375 0 L 1.03125 0 L 1.03125 -10.140625 Z M 7.828125 -10.140625 "/></g></g></g><g fill="#70696b" fill-opacity="1"><g transform="translate(243.20347, 75.602759)"><g><path d="M 5.40625 -10.140625 C 6.550781 -10.140625 7.382812 -9.878906 7.90625 -9.359375 C 8.425781 -8.847656 8.6875 -8.226562 8.6875 -7.5 C 8.6875 -6.882812 8.507812 -6.363281 8.15625 -5.9375 C 7.8125 -5.519531 7.28125 -5.210938 6.5625 -5.015625 C 7.15625 -4.953125 7.585938 -4.773438 7.859375 -4.484375 C 8.128906 -4.191406 8.328125 -3.453125 8.453125 -2.265625 C 8.578125 -1.078125 8.765625 -0.320312 9.015625 0 L 6.609375 0 C 6.367188 -1.707031 6.207031 -2.816406 6.125 -3.328125 C 6.039062 -3.835938 5.6875 -4.09375 5.0625 -4.09375 L 3.0625 -4.09375 L 3.0625 0 L 0.84375 0 L 0.84375 -10.140625 Z M 4.890625 -5.703125 C 5.347656 -5.703125 5.710938 -5.832031 5.984375 -6.09375 C 6.265625 -6.363281 6.40625 -6.722656 6.40625 -7.171875 C 6.40625 -7.617188 6.28125 -7.957031 6.03125 -8.1875 C 5.789062 -8.425781 5.414062 -8.546875 4.90625 -8.546875 L 2.984375 -8.546875 L 2.984375 -5.703125 Z M 4.890625 -5.703125 "/></g></g></g><g clip-path="url(#aaeb682499)"><g clip-path="url(#bcabbbff67)"><path fill="#e41d5a" d="M 44.449219 76.601562 L 39.625 76.601562 L 39.625 30.367188 L 44.449219 30.367188 Z M 44.449219 76.601562 " fill-opacity="1" fill-rule="nonzero"/></g></g><g clip-path="url(#9c45de6e34)"><g clip-path="url(#131d11edf3)"><path fill="#19b5d0" d="M 4.816406 76.601562 L -0.00390625 76.601562 L -0.00390625 45.835938 L 4.816406 45.835938 Z M 4.816406 76.601562 " fill-opacity="1" fill-rule="nonzero"/></g></g><g clip-path="url(#c326695462)"><g clip-path="url(#471bc60b2c)"><path fill="#ec7031" d="M 34.539062 76.605469 L 29.714844 76.605469 L 29.714844 22.304688 L 34.539062 22.304688 Z M 34.539062 76.605469 " fill-opacity="1" fill-rule="nonzero"/></g></g><g clip-path="url(#8b4d36ae07)"><g clip-path="url(#96f159ffe1)"><path fill="#00ac8a" d="M 14.726562 76.601562 L 9.902344 76.601562 L 9.902344 30.367188 L 14.726562 30.367188 Z M 14.726562 76.601562 " fill-opacity="1" fill-rule="nonzero"/></g></g><g clip-path="url(#20b8e8db36)"><g clip-path="url(#642765d84f)"><path fill="#f2bd3c" d="M 24.632812 76.605469 L 19.808594 76.605469 L 19.808594 15.089844 L 24.632812 15.089844 Z M 24.632812 76.605469 " fill-opacity="1" fill-rule="nonzero"/></g></g></svg>
