<svg viewBox="7.32 16.6 236.45 77.54" xmlns="http://www.w3.org/2000/svg"><defs><clipPath id="a"><path d="M93.73 21.793h11.391v66.062h-11.39Zm0 0"/></clipPath><clipPath id="b"><path d="M101.39 87.855h-3.93a3.73 3.73 0 0 1-3.73-3.726V25.55a3.73 3.73 0 0 1 3.73-3.727h3.93a3.727 3.727 0 0 1 3.731 3.727v58.578a3.727 3.727 0 0 1-3.73 3.726zm0 0"/></clipPath><clipPath id="c"><path d="M.172 43.91h11.375v43.953H.172zm0 0"/></clipPath><clipPath id="d"><path d="M7.82 87.863H3.887A3.726 3.726 0 0 1 .16 84.137v-36.48a3.727 3.727 0 0 1 3.727-3.731H7.82a3.727 3.727 0 0 1 3.727 3.73v36.48a3.726 3.726 0 0 1-3.727 3.727zm0 0"/></clipPath><clipPath id="e"><path d="M70.34 10.273h11.387V87.86H70.34Zm0 0"/></clipPath><clipPath id="f"><path d="M78 87.86h-3.934a3.727 3.727 0 0 1-3.726-3.731v-70.11a3.73 3.73 0 0 1 3.726-3.73H78a3.73 3.73 0 0 1 3.727 3.73v70.11A3.727 3.727 0 0 1 78 87.859zm0 0"/></clipPath><clipPath id="g"><path d="M23.55 21.793h11.391v66.062h-11.39Zm0 0"/></clipPath><clipPath id="h"><path d="M31.21 87.855h-3.929a3.73 3.73 0 0 1-3.73-3.726V25.55a3.73 3.73 0 0 1 3.73-3.727h3.93a3.73 3.73 0 0 1 3.73 3.727v58.578a3.73 3.73 0 0 1-3.73 3.726zm0 0"/></clipPath><clipPath id="i"><path d="M46.945 0h11.39v87.852h-11.39Zm0 0"/></clipPath><clipPath id="j"><path d="M54.605 87.852h-3.93a3.73 3.73 0 0 1-3.73-3.73V3.702a3.73 3.73 0 0 1 3.73-3.73h3.93a3.733 3.733 0 0 1 3.73 3.73v80.418a3.733 3.733 0 0 1-3.73 3.73zm0 0"/></clipPath></defs><g clip-path="url(#a)" style="fill:#e41d5a;fill-opacity:1" transform="matrix(.29494 0 0 .29494 109.472 16.602)"><g clip-path="url(#b)" style="fill:#e41d5a;fill-opacity:1"><path d="M105.121 87.855h-11.39v-66.02h11.39zm0 0" style="fill:#e41d5a;fill-opacity:1"/></g></g><g clip-path="url(#c)" style="fill:#19b5d0;fill-opacity:1" transform="matrix(.29494 0 0 .29494 109.472 16.602)"><g clip-path="url(#d)" style="fill:#19b5d0;fill-opacity:1"><path d="M11.547 87.863H.16V43.91h11.387zm0 0" style="fill:#19b5d0;fill-opacity:1"/></g></g><g clip-path="url(#e)" style="fill:#ec7031;fill-opacity:1" transform="matrix(.29494 0 0 .29494 109.472 16.602)"><g clip-path="url(#f)" style="fill:#ec7031;fill-opacity:1"><path d="M81.727 87.86H70.34V10.272h11.387zm0 0" style="fill:#ec7031;fill-opacity:1"/></g></g><g clip-path="url(#g)" style="fill:#00ac8a;fill-opacity:1" transform="matrix(.29494 0 0 .29494 109.472 16.602)"><g clip-path="url(#h)" style="fill:#00ac8a;fill-opacity:1"><path d="M34.941 87.855h-11.39v-66.02h11.39zm0 0" style="fill:#00ac8a;fill-opacity:1"/></g></g><g clip-path="url(#i)" style="fill:#f2bd3c;fill-opacity:1" transform="matrix(.29494 0 0 .29494 109.472 16.602)"><g clip-path="url(#j)" style="fill:#f2bd3c;fill-opacity:1"><path d="M58.336 87.852h-11.39V-.012h11.39zm0 0" style="fill:#f2bd3c;fill-opacity:1"/></g></g><g style="fill:#1e3456;fill-opacity:1"><g aria-label="BRENNA" style="font-weight:800;font-size:16.9333px;font-family:Montserrat;-inkscape-font-specification:'Montserrat Ultra-Bold';stroke-width:.264583"><path d="M58.077 123.296v-11.853h5.554q2.134 0 3.251.847 1.118.83 1.118 2.235 0 .948-.44 1.626-.44.66-1.186 1.033-.728.355-1.592.355l.305-.61q1 0 1.795.373.796.356 1.253 1.05.474.694.474 1.727 0 1.524-1.168 2.37-1.168.847-3.471.847zm2.201-1.727h3.556q1.236 0 1.897-.406.66-.406.66-1.304 0-.88-.66-1.287-.66-.423-1.897-.423H60.11v-1.71h3.285q1.151 0 1.76-.407.627-.406.627-1.22 0-.829-.626-1.235-.61-.407-1.761-.407h-3.116zM70.963 123.296v-11.853h4.86q2.37 0 3.708 1.118 1.355 1.117 1.355 3.099 0 1.303-.61 2.252-.61.931-1.744 1.439-1.117.491-2.692.491h-3.658l.982-.999v4.453zm7.755 0-2.997-4.3h2.354l3.014 4.3zm-5.554-4.216-.982-1.05h3.556q1.456 0 2.185-.626.745-.627.745-1.744 0-1.135-.745-1.745-.729-.61-2.185-.61h-3.556l.982-1.083zM83.341 123.296v-11.853h8.653v1.846h-6.451v8.162h6.688v1.845zm2.032-5.113v-1.812h5.893v1.812zM94.687 123.296v-11.853h1.811l7.434 9.127h-.897v-9.127h2.184v11.853h-1.812l-7.434-9.127h.898v9.127zM108.402 123.296v-11.853h1.812l7.434 9.127h-.897v-9.127h2.184v11.853h-1.812l-7.434-9.127h.898v9.127zM120.442 123.296l5.334-11.853h2.168l5.35 11.853h-2.302l-4.59-10.684h.881l-4.572 10.684zm2.455-2.743.593-1.727h6.4l.594 1.727z" style="font-weight:600;-inkscape-font-specification:'Montserrat Semi-Bold'" transform="translate(-92.167 -138.68) scale(1.71307)"/></g><path d="M144.982 123.56q-1.388 0-2.658-.39-1.27-.406-2.015-1.033l.762-1.71q.71.559 1.76.931 1.05.373 2.151.373.932 0 1.507-.203.576-.204.847-.542.27-.356.27-.796 0-.542-.389-.864-.389-.338-1.016-.525-.61-.203-1.371-.372-.745-.17-1.507-.39-.745-.237-1.372-.592-.61-.373-.999-.982-.39-.61-.39-1.558 0-.966.509-1.761.525-.813 1.574-1.287 1.067-.491 2.693-.491 1.067 0 2.117.27 1.05.271 1.828.78l-.694 1.71q-.796-.474-1.642-.695-.847-.237-1.626-.237-.914 0-1.49.22-.559.22-.83.576-.254.356-.254.813 0 .542.373.88.39.322.999.509.626.186 1.388.372.762.17 1.507.39.762.22 1.372.575.626.356.999.966.39.61.39 1.54 0 .949-.526 1.762-.508.795-1.574 1.286-1.067.475-2.693.475zM152.772 123.509q-.576 0-.983-.39-.406-.406-.406-1.016 0-.643.406-1.016.407-.39.983-.39.575 0 .982.39.406.373.406 1.016 0 .61-.406 1.016-.407.39-.982.39zM166.657 123.56q-1.389 0-2.557-.458-1.168-.457-2.032-1.27-.864-.83-1.338-1.93-.474-1.118-.474-2.438 0-1.321.474-2.422.474-1.117 1.338-1.93.864-.83 2.032-1.287 1.168-.457 2.54-.457 1.388 0 2.54.457 1.168.457 2.032 1.287.863.813 1.338 1.93.474 1.1.474 2.422 0 1.32-.474 2.438-.475 1.118-1.338 1.93-.864.813-2.032 1.27-1.152.458-2.523.458zm-.017-1.93q.897 0 1.66-.306.761-.304 1.32-.863.559-.576.864-1.321.322-.762.322-1.676 0-.915-.322-1.66-.305-.762-.864-1.32-.559-.576-1.32-.881-.763-.305-1.66-.305-.898 0-1.66.305-.745.305-1.32.88-.56.56-.88 1.321-.306.745-.306 1.66 0 .897.305 1.66.322.761.88 1.337.56.559 1.321.863.762.305 1.66.305zM175.36 123.39v-11.853h4.86q2.371 0 3.709 1.118 1.354 1.117 1.354 3.098 0 1.304-.61 2.252-.609.932-1.743 1.44-1.118.49-2.693.49h-3.657l.982-.998v4.453zm7.756 0-2.997-4.3h2.354l3.014 4.3zm-5.554-4.216-.982-1.05h3.556q1.456 0 2.184-.627.745-.626.745-1.744 0-1.134-.745-1.744-.728-.61-2.184-.61h-3.556l.982-1.083zM189.974 123.39v-9.99h-3.929v-1.863h10.059v1.863h-3.929v9.99z" style="font-weight:600;font-size:16.9333px;font-family:Montserrat;-inkscape-font-specification:'Montserrat Semi-Bold';stroke-width:.264583" transform="translate(-92.167 -138.68) scale(1.71307)"/></g><g aria-label="BOOKKEEPER" style="font-stretch:condensed;font-size:20.9771px;font-family:'Barlow Condensed';-inkscape-font-specification:'Barlow Condensed, Condensed';letter-spacing:4.59202px;opacity:.8;fill:#1e3456;stroke-width:.524428"><path d="M93.971-30.47q0 1.91-1.09 2.958-1.07 1.05-2.832 1.05h-3.503q-.21 0-.21-.21v-14.265q0-.21.21-.21h3.21q1.908 0 2.978 1.007 1.09.986 1.09 2.895 0 2.266-1.615 3.126-.104.063-.02.105.838.503 1.3 1.405.482.902.482 2.14zm-5.537-8.936q-.084 0-.084.084v4.447q0 .084.084.084h1.342q.986 0 1.531-.587.546-.608.546-1.678 0-1.112-.546-1.72-.545-.63-1.531-.63zm1.447 11.181q.965 0 1.51-.65.567-.65.567-1.846 0-1.217-.546-1.888-.545-.692-1.51-.692h-1.468q-.084 0-.084.084v4.908q0 .084.084.084zM104.018-26.295q-1.72 0-2.77-1.049-1.048-1.049-1.048-2.79v-7.32q0-1.742 1.049-2.79 1.048-1.07 2.769-1.07 1.74 0 2.79 1.07 1.07 1.048 1.07 2.79v7.32q0 1.741-1.07 2.79-1.05 1.05-2.79 1.05zm0-1.741q.839 0 1.342-.545.504-.567.504-1.469v-7.51q0-.902-.504-1.447-.503-.566-1.342-.566-.819 0-1.322.566-.483.545-.483 1.447v7.51q0 .902.483 1.469.503.545 1.322.545zM118.301-26.295q-1.72 0-2.769-1.049-1.049-1.049-1.049-2.79v-7.32q0-1.742 1.049-2.79 1.049-1.07 2.769-1.07 1.741 0 2.79 1.07 1.07 1.048 1.07 2.79v7.32q0 1.741-1.07 2.79-1.049 1.05-2.79 1.05zm0-1.741q.839 0 1.342-.545.504-.567.504-1.469v-7.51q0-.902-.504-1.447-.503-.566-1.342-.566-.818 0-1.322.566-.482.545-.482 1.447v7.51q0 .902.482 1.469.504.545 1.322.545zM129.27-26.463q-.21 0-.21-.21v-14.264q0-.21.21-.21h1.594q.21 0 .21.21v6.293q0 .063.042.084.042 0 .063-.063L134.745-41q.105-.147.252-.147h1.72q.126 0 .168.084.042.063-.021.168l-3.23 5.832q-.022.063 0 .126l3.502 8.223.021.083q0 .168-.188.168h-1.741q-.168 0-.231-.168l-2.727-6.544q-.021-.105-.105-.021l-1.07 1.699q-.021.02-.021.105v4.72q0 .21-.21.21zM143.637-26.463q-.21 0-.21-.21v-14.264q0-.21.21-.21h1.595q.21 0 .21.21v6.293q0 .063.041.084.042 0 .063-.063L149.112-41q.105-.147.252-.147h1.72q.126 0 .168.084.042.063-.021.168l-3.23 5.832q-.022.063 0 .126l3.503 8.223.02.083q0 .168-.188.168h-1.741q-.168 0-.231-.168l-2.727-6.544q-.021-.105-.105-.021l-1.07 1.699q-.02.02-.02.105v4.72q0 .21-.21.21zM164.822-39.615q0 .21-.21.21h-4.72q-.083 0-.083.083v4.552q0 .084.084.084h2.894q.21 0 .21.21v1.322q0 .21-.21.21h-2.894q-.084 0-.084.083v4.573q0 .084.084.084h4.72q.21 0 .21.21v1.322q0 .21-.21.21h-6.608q-.21 0-.21-.21v-14.265q0-.21.21-.21h6.607q.21 0 .21.21zM178.476-39.615q0 .21-.21.21h-4.72q-.083 0-.083.083v4.552q0 .084.084.084h2.895q.21 0 .21.21v1.322q0 .21-.21.21h-2.895q-.084 0-.084.083v4.573q0 .084.084.084h4.72q.21 0 .21.21v1.322q0 .21-.21.21h-6.608q-.21 0-.21-.21v-14.265q0-.21.21-.21h6.608q.21 0 .21.21zM189.047-41.168q1.615 0 2.601 1.175 1.007 1.154 1.007 3.042 0 1.846-.965 2.978-.965 1.133-2.538 1.133h-1.972q-.084 0-.084.084v6.084q0 .21-.21.21h-1.594q-.21 0-.21-.21v-14.286q0-.21.21-.21zm-.315 6.713q.86 0 1.385-.65.524-.672.524-1.804 0-1.154-.524-1.825-.525-.693-1.385-.693h-1.552q-.084 0-.084.084v4.804q0 .084.084.084zM206.183-39.615q0 .21-.21.21h-4.72q-.083 0-.083.083v4.552q0 .084.084.084h2.894q.21 0 .21.21v1.322q0 .21-.21.21h-2.894q-.084 0-.084.083v4.573q0 .084.084.084h4.72q.21 0 .21.21v1.322q0 .21-.21.21h-6.608q-.21 0-.21-.21v-14.265q0-.21.21-.21h6.607q.21 0 .21.21zM218.642-26.463q-.19 0-.252-.168l-1.93-6.25q-.021-.064-.084-.064h-1.468q-.084 0-.084.084v6.189q0 .21-.21.21h-1.594q-.21 0-.21-.21v-14.265q0-.21.21-.21h3.755q1.07 0 1.888.525.818.524 1.258 1.49.462.943.462 2.16 0 1.321-.546 2.307-.545.965-1.49 1.406-.062.063-.041.126l2.14 6.44.02.083q0 .147-.188.147zm-3.734-12.943q-.084 0-.084.084v4.7q0 .083.084.083h1.552q.86 0 1.384-.65.525-.671.525-1.762 0-1.133-.525-1.783-.524-.672-1.384-.672z" style="font-weight:500;-inkscape-font-specification:'Barlow Condensed, Medium Condensed'" transform="translate(-7.58 116.865) scale(.86427)"/></g></svg>